<svg width="223" height="235" viewBox="0 0 223 235" fill="none" xmlns="http://www.w3.org/2000/svg">
<g clip-path="url(#clip0_13_650)">
<path d="M98.0353 205.71C136.111 205.71 166.978 203.683 166.978 201.183C166.978 198.684 136.111 196.657 98.0353 196.657C59.9593 196.657 29.0926 198.684 29.0926 201.183C29.0926 203.683 59.9593 205.71 98.0353 205.71Z" fill="#FF7F48"/>
<path opacity="0.8" d="M98.0353 205.71C136.111 205.71 166.978 203.683 166.978 201.183C166.978 198.684 136.111 196.657 98.0353 196.657C59.9593 196.657 29.0926 198.684 29.0926 201.183C29.0926 203.683 59.9593 205.71 98.0353 205.71Z" fill="white"/>
<path d="M149.843 29.0742H80.5208C75.7348 29.0742 71.855 33.1628 71.855 38.2063V192.432C71.855 197.476 75.7348 201.564 80.5208 201.564H149.843C154.629 201.564 158.508 197.476 158.508 192.432V38.2063C158.508 33.1628 154.629 29.0742 149.843 29.0742Z" fill="#263238"/>
<path d="M154.655 48.0152H75.704V182.623H154.655V48.0152Z" fill="white" stroke="#263238" stroke-width="1.33739" stroke-miterlimit="10"/>
<path d="M127.282 102.522C133.965 95.4792 133.965 84.0608 127.282 77.0181C120.599 69.9754 109.764 69.9754 103.081 77.0181C96.3978 84.0608 96.3978 95.4792 103.081 102.522C109.764 109.565 120.599 109.565 127.282 102.522Z" fill="#FF7F48"/>
<path d="M137.649 174.158H92.7189C92.6178 174.159 92.5176 174.139 92.424 174.098C92.3304 174.058 92.2453 173.999 92.1736 173.923C92.1019 173.848 92.045 173.759 92.0062 173.661C91.9673 173.562 91.9473 173.457 91.9473 173.35C91.9467 173.243 91.9663 173.137 92.0049 173.038C92.0434 172.939 92.1002 172.849 92.172 172.774C92.2438 172.698 92.3291 172.638 92.423 172.598C92.5168 172.557 92.6174 172.536 92.7189 172.537H137.649C137.75 172.537 137.85 172.558 137.944 172.599C138.037 172.64 138.122 172.7 138.193 172.775C138.264 172.851 138.321 172.941 138.359 173.039C138.397 173.138 138.417 173.244 138.416 173.35C138.416 173.564 138.335 173.77 138.191 173.922C138.048 174.073 137.852 174.158 137.649 174.158Z" fill="#FF7F48"/>
<path d="M139.112 117.942H91.2516C90.2639 117.942 89.4631 118.786 89.4631 119.826V125.772C89.4631 126.813 90.2639 127.657 91.2516 127.657H139.112C140.1 127.657 140.9 126.813 140.9 125.772V119.826C140.9 118.786 140.1 117.942 139.112 117.942Z" fill="#FF7F48"/>
<path d="M139.112 136.112H91.2516C90.2639 136.112 89.4631 136.956 89.4631 137.997V143.942C89.4631 144.983 90.2639 145.827 91.2516 145.827H139.112C140.1 145.827 140.9 144.983 140.9 143.942V137.997C140.9 136.956 140.1 136.112 139.112 136.112Z" fill="#FF7F48"/>
<path d="M123.703 98.7658L118.667 95.7108V93.1869C119.396 92.2573 119.924 91.1715 120.215 90.005C120.388 90.0699 120.571 90.1032 120.754 90.1037C121.379 90.1037 121.776 88.0639 121.843 86.6069C122.57 84.9854 121.58 84.036 121.58 84.036C121.58 84.036 121.99 83.6036 122.262 81.8693C122.534 80.135 121.303 80.8588 120.344 79.2702C119.385 77.6816 118.698 75.952 115.55 75.952C114.682 75.9219 113.826 76.1676 113.093 76.6571C112.359 77.1466 111.783 77.8573 111.438 78.6968C110.654 78.6998 109.873 78.7959 109.109 78.9835C108.146 79.2702 107.874 82.5931 108.695 83.895C109.062 84.6065 109.258 85.4021 109.266 86.2121C109.047 85.9301 108.82 85.8549 108.695 86.4941C108.423 87.937 109.52 89.958 109.52 89.958L110.086 89.7888C110.372 91.0354 110.922 92.1974 111.696 93.1869V95.7108L106.661 98.7658C106.073 99.1236 105.584 99.638 105.245 100.258C104.905 100.877 104.726 101.58 104.725 102.295V104.044C107.72 106.482 111.397 107.804 115.182 107.804C118.966 107.804 122.643 106.482 125.638 104.044V102.295C125.639 101.58 125.46 100.877 125.12 100.257C124.78 99.6371 124.291 99.1228 123.703 98.7658Z" fill="#263238"/>
<path d="M95.9792 143.411C95.8637 143.409 95.7534 143.36 95.6714 143.275C95.6275 143.233 95.5925 143.183 95.5687 143.126C95.5448 143.069 95.5327 143.008 95.5332 142.946C95.5345 142.861 95.5577 142.778 95.6001 142.706L96.4029 141.352L94.8374 141.404C94.7784 141.408 94.7193 141.399 94.664 141.377C94.6086 141.355 94.5583 141.321 94.5163 141.277C94.4436 141.191 94.4034 141.08 94.4034 140.965C94.4034 140.849 94.4436 140.738 94.5163 140.652C94.5574 140.607 94.6074 140.571 94.6629 140.549C94.7184 140.526 94.778 140.516 94.8374 140.521L96.3806 140.582L95.5867 139.233C95.5435 139.159 95.5203 139.075 95.5198 138.988C95.5194 138.926 95.5315 138.865 95.5553 138.808C95.5791 138.751 95.6142 138.701 95.658 138.659C95.74 138.574 95.8503 138.525 95.9658 138.523C96.0418 138.524 96.1161 138.547 96.18 138.59C96.244 138.633 96.295 138.695 96.327 138.767L97.0897 140.22L97.8435 138.777C97.8792 138.7 97.9343 138.635 98.0027 138.588C98.071 138.542 98.1502 138.516 98.2315 138.514C98.2878 138.514 98.3435 138.527 98.395 138.551C98.4464 138.575 98.4925 138.611 98.5303 138.655C98.6121 138.744 98.657 138.864 98.6552 138.988C98.6549 139.069 98.635 139.148 98.5972 139.219L97.7899 140.582L99.3554 140.521C99.4148 140.516 99.4744 140.526 99.5299 140.549C99.5854 140.571 99.6354 140.607 99.6765 140.652C99.7525 140.735 99.7942 140.847 99.7925 140.962C99.7922 141.079 99.7509 141.191 99.6765 141.277C99.6345 141.321 99.5842 141.355 99.5288 141.377C99.4735 141.399 99.4144 141.408 99.3554 141.404L97.781 141.352L98.566 142.692C98.61 142.767 98.6331 142.853 98.6329 142.941C98.6329 143.066 98.5859 143.185 98.5022 143.273C98.4186 143.362 98.3052 143.411 98.1869 143.411C98.1104 143.41 98.0359 143.385 97.9725 143.34C97.9091 143.295 97.8596 143.232 97.8301 143.157L97.0852 141.747L96.3449 143.157C96.3121 143.231 96.2605 143.294 96.196 143.338C96.1314 143.383 96.0564 143.408 95.9792 143.411Z" fill="#263238"/>
<path d="M103.213 143.411C103.098 143.409 102.988 143.36 102.906 143.275C102.862 143.233 102.827 143.183 102.803 143.126C102.779 143.069 102.767 143.008 102.767 142.946C102.769 142.861 102.792 142.778 102.834 142.706L103.637 141.352L102.076 141.404C102.016 141.407 101.957 141.397 101.901 141.375C101.845 141.354 101.794 141.32 101.75 141.277C101.691 141.213 101.652 141.131 101.637 141.043C101.623 140.955 101.634 140.864 101.669 140.782C101.704 140.7 101.762 140.632 101.834 140.585C101.907 140.539 101.991 140.516 102.076 140.521L103.615 140.582L102.821 139.233C102.778 139.159 102.754 139.075 102.754 138.988C102.753 138.926 102.766 138.865 102.789 138.808C102.813 138.751 102.848 138.701 102.892 138.659C102.974 138.574 103.084 138.525 103.2 138.523C103.276 138.524 103.35 138.547 103.414 138.59C103.478 138.633 103.529 138.695 103.561 138.767L104.324 140.22L105.078 138.777C105.113 138.7 105.168 138.635 105.237 138.588C105.305 138.542 105.384 138.516 105.466 138.514C105.522 138.513 105.578 138.526 105.629 138.55C105.681 138.575 105.727 138.61 105.764 138.655C105.806 138.699 105.838 138.751 105.861 138.808C105.883 138.865 105.894 138.927 105.894 138.988C105.892 139.07 105.871 139.149 105.831 139.219L105.024 140.582L106.594 140.53C106.653 140.526 106.712 140.535 106.766 140.558C106.821 140.581 106.87 140.616 106.911 140.662C106.987 140.745 107.028 140.856 107.027 140.972C107.026 141.088 106.985 141.2 106.911 141.287C106.869 141.33 106.82 141.364 106.765 141.386C106.711 141.408 106.652 141.417 106.594 141.414L105.015 141.362L105.8 142.701C105.844 142.776 105.867 142.862 105.867 142.95C105.867 143.075 105.82 143.195 105.736 143.283C105.653 143.371 105.539 143.42 105.421 143.42C105.345 143.419 105.27 143.395 105.207 143.35C105.143 143.305 105.094 143.241 105.064 143.167L104.319 141.757L103.579 143.167C103.545 143.239 103.493 143.299 103.428 143.342C103.364 143.386 103.29 143.409 103.213 143.411Z" fill="#263238"/>
<path d="M110.452 143.411C110.335 143.411 110.223 143.362 110.14 143.275C110.096 143.233 110.061 143.183 110.037 143.126C110.013 143.069 110.001 143.008 110.001 142.946C110.003 142.861 110.026 142.778 110.068 142.706L110.871 141.352L109.31 141.404C109.226 141.408 109.143 141.385 109.071 141.338C109 141.292 108.943 141.224 108.908 141.143C108.873 141.063 108.861 140.973 108.875 140.885C108.889 140.798 108.927 140.717 108.985 140.652C109.027 140.607 109.078 140.572 109.134 140.549C109.19 140.526 109.25 140.517 109.31 140.521L110.849 140.582L110.055 139.233C110.012 139.159 109.989 139.075 109.988 138.988C109.989 138.927 110.002 138.866 110.026 138.809C110.05 138.753 110.084 138.702 110.126 138.659C110.209 138.573 110.322 138.524 110.439 138.523C110.514 138.524 110.587 138.548 110.65 138.591C110.713 138.635 110.764 138.696 110.795 138.767L111.558 140.22L112.312 138.777C112.347 138.7 112.403 138.635 112.471 138.588C112.539 138.542 112.618 138.516 112.7 138.514C112.756 138.513 112.812 138.526 112.864 138.55C112.915 138.575 112.961 138.61 112.999 138.655C113.04 138.699 113.073 138.751 113.095 138.808C113.117 138.865 113.128 138.927 113.128 138.988C113.126 139.07 113.105 139.149 113.065 139.219L112.258 140.582L113.828 140.521C113.886 140.514 113.944 140.522 113.999 140.541C114.054 140.561 114.104 140.593 114.147 140.635C114.189 140.676 114.222 140.727 114.244 140.784C114.266 140.84 114.276 140.901 114.274 140.962C114.275 141.078 114.235 141.19 114.163 141.277C114.121 141.321 114.07 141.355 114.015 141.377C113.96 141.399 113.9 141.408 113.841 141.404L112.267 141.352L113.048 142.692C113.092 142.767 113.115 142.853 113.115 142.941C113.113 143.003 113.1 143.064 113.076 143.12C113.053 143.177 113.019 143.227 112.976 143.27C112.937 143.314 112.891 143.349 112.838 143.374C112.786 143.398 112.73 143.411 112.673 143.411C112.597 143.41 112.523 143.385 112.461 143.34C112.398 143.295 112.349 143.231 112.321 143.157L111.571 141.747L110.831 143.157C110.798 143.233 110.744 143.298 110.677 143.343C110.61 143.388 110.532 143.412 110.452 143.411Z" fill="#263238"/>
<path d="M117.686 143.411C117.569 143.411 117.457 143.362 117.374 143.275C117.29 143.188 117.242 143.07 117.24 142.946C117.239 142.861 117.26 142.778 117.302 142.706L118.105 141.352L116.544 141.404C116.485 141.407 116.425 141.397 116.369 141.375C116.313 141.354 116.262 141.32 116.219 141.277C116.146 141.191 116.106 141.08 116.106 140.965C116.106 140.849 116.146 140.738 116.219 140.652C116.262 140.608 116.313 140.574 116.369 140.551C116.425 140.529 116.484 140.518 116.544 140.521L118.087 140.582L117.298 139.233C117.255 139.159 117.232 139.075 117.231 138.988C117.233 138.927 117.245 138.866 117.269 138.809C117.293 138.753 117.327 138.702 117.369 138.659C117.452 138.573 117.565 138.524 117.682 138.523C117.758 138.524 117.832 138.547 117.896 138.59C117.96 138.633 118.011 138.695 118.043 138.767L118.801 140.22L119.555 138.777C119.591 138.7 119.646 138.635 119.714 138.588C119.782 138.542 119.861 138.516 119.943 138.514C119.999 138.513 120.055 138.526 120.107 138.55C120.158 138.575 120.204 138.61 120.242 138.655C120.283 138.699 120.316 138.751 120.338 138.808C120.36 138.865 120.371 138.927 120.371 138.988C120.369 139.07 120.348 139.149 120.309 139.219L119.501 140.582L121.071 140.521C121.129 140.514 121.187 140.522 121.242 140.541C121.297 140.561 121.347 140.593 121.39 140.635C121.432 140.676 121.465 140.727 121.487 140.784C121.509 140.84 121.519 140.901 121.517 140.962C121.518 141.078 121.478 141.19 121.406 141.277C121.364 141.321 121.313 141.355 121.258 141.377C121.203 141.399 121.144 141.408 121.085 141.404L119.51 141.352L120.291 142.692C120.335 142.767 120.358 142.853 120.358 142.941C120.358 143.003 120.346 143.065 120.322 143.121C120.298 143.178 120.263 143.229 120.219 143.27C120.18 143.314 120.134 143.349 120.081 143.374C120.029 143.398 119.973 143.411 119.916 143.411C119.84 143.41 119.766 143.385 119.704 143.34C119.641 143.295 119.592 143.231 119.564 143.157L118.814 141.747L118.074 143.157C118.04 143.235 117.985 143.3 117.916 143.346C117.847 143.391 117.767 143.413 117.686 143.411Z" fill="#263238"/>
<path d="M124.92 143.411C124.803 143.411 124.691 143.362 124.608 143.275C124.539 143.201 124.495 143.105 124.483 143.002C124.471 142.9 124.491 142.795 124.541 142.706L125.339 141.352L123.778 141.404C123.719 141.407 123.659 141.397 123.603 141.375C123.547 141.354 123.496 141.32 123.453 141.277C123.38 141.191 123.34 141.08 123.34 140.965C123.34 140.849 123.38 140.738 123.453 140.652C123.496 140.608 123.547 140.574 123.603 140.551C123.659 140.529 123.718 140.518 123.778 140.521L125.322 140.582L124.528 139.233C124.484 139.159 124.461 139.075 124.461 138.988C124.462 138.864 124.511 138.746 124.595 138.659C124.678 138.573 124.79 138.524 124.907 138.523C124.983 138.524 125.057 138.547 125.121 138.59C125.185 138.633 125.236 138.695 125.268 138.767L126.026 140.22L126.78 138.777C126.816 138.7 126.871 138.635 126.939 138.588C127.008 138.542 127.087 138.516 127.168 138.514C127.225 138.513 127.282 138.526 127.334 138.55C127.386 138.574 127.433 138.61 127.471 138.655C127.553 138.744 127.598 138.864 127.596 138.988C127.595 139.07 127.573 139.149 127.534 139.219L126.726 140.582L128.296 140.521C128.354 140.514 128.412 140.522 128.467 140.541C128.522 140.561 128.572 140.593 128.615 140.635C128.657 140.676 128.69 140.727 128.712 140.784C128.734 140.84 128.745 140.901 128.742 140.962C128.743 141.078 128.704 141.19 128.631 141.277C128.589 141.321 128.538 141.355 128.483 141.377C128.428 141.399 128.369 141.408 128.31 141.404L126.735 141.352L127.516 142.692C127.56 142.767 127.583 142.853 127.583 142.941C127.583 143.003 127.571 143.065 127.547 143.121C127.523 143.178 127.488 143.229 127.444 143.27C127.406 143.314 127.359 143.349 127.307 143.374C127.254 143.398 127.198 143.411 127.141 143.411C127.065 143.41 126.992 143.385 126.929 143.34C126.866 143.295 126.818 143.231 126.789 143.157L126.04 141.747L125.299 143.157C125.266 143.233 125.212 143.298 125.145 143.343C125.078 143.388 125 143.412 124.92 143.411Z" fill="#263238"/>
<path d="M132.154 143.411C132.039 143.409 131.928 143.36 131.846 143.275C131.803 143.233 131.768 143.183 131.744 143.126C131.72 143.069 131.708 143.008 131.708 142.946C131.71 142.861 131.733 142.778 131.775 142.706L132.573 141.352L131.012 141.404C130.955 141.409 130.897 141.401 130.843 141.38C130.789 141.36 130.739 141.328 130.697 141.287C130.655 141.245 130.622 141.195 130.599 141.139C130.577 141.083 130.566 141.023 130.566 140.962C130.566 140.905 130.577 140.848 130.597 140.795C130.618 140.741 130.648 140.693 130.687 140.652C130.728 140.607 130.778 140.571 130.834 140.549C130.889 140.526 130.949 140.516 131.008 140.521L132.551 140.582L131.757 139.233C131.714 139.159 131.691 139.075 131.69 138.988C131.692 138.864 131.74 138.746 131.824 138.659C131.907 138.573 132.019 138.524 132.136 138.523C132.212 138.524 132.287 138.547 132.351 138.59C132.415 138.633 132.466 138.695 132.498 138.767L133.256 140.22L134.014 138.777C134.049 138.701 134.104 138.636 134.171 138.589C134.239 138.543 134.317 138.517 134.398 138.514C134.455 138.513 134.511 138.526 134.564 138.55C134.616 138.574 134.663 138.61 134.701 138.655C134.783 138.744 134.828 138.864 134.826 138.988C134.826 139.069 134.806 139.148 134.768 139.219L133.961 140.582L135.526 140.521C135.585 140.516 135.645 140.526 135.7 140.549C135.756 140.571 135.806 140.607 135.847 140.652C135.923 140.735 135.965 140.847 135.963 140.962C135.963 141.079 135.921 141.191 135.847 141.277C135.805 141.321 135.755 141.355 135.699 141.377C135.644 141.399 135.585 141.408 135.526 141.404L133.952 141.352L134.732 142.692C134.776 142.767 134.799 142.853 134.799 142.941C134.797 143.065 134.749 143.183 134.665 143.27C134.584 143.358 134.474 143.408 134.357 143.411C134.282 143.41 134.208 143.385 134.145 143.34C134.083 143.295 134.034 143.231 134.005 143.157L133.256 141.747L132.515 143.157C132.483 143.231 132.433 143.293 132.369 143.338C132.305 143.383 132.231 143.408 132.154 143.411Z" fill="#263238"/>
<g style="mix-blend-mode:multiply">
<path d="M154.655 48.1938H75.704V53.4061H154.655V48.1938Z" fill="#FF7F48"/>
</g>
<path d="M123.765 38.5917H106.594C106.284 38.5917 105.987 38.4619 105.768 38.231C105.549 38.0001 105.425 37.6869 105.425 37.3603C105.425 37.0337 105.549 36.7205 105.768 36.4895C105.987 36.2586 106.284 36.1289 106.594 36.1289H123.765C124.075 36.1289 124.372 36.2586 124.591 36.4895C124.81 36.7205 124.934 37.0337 124.934 37.3603C124.934 37.6869 124.81 38.0001 124.591 38.231C124.372 38.4619 124.075 38.5917 123.765 38.5917Z" fill="#FF7F48" stroke="#263238" stroke-width="1.33739" stroke-linecap="round" stroke-linejoin="round"/>
<path d="M119.862 190.228C119.863 189.251 119.589 188.297 119.075 187.484C118.561 186.672 117.83 186.039 116.974 185.665C116.118 185.291 115.176 185.192 114.267 185.383C113.358 185.573 112.523 186.043 111.868 186.734C111.213 187.424 110.767 188.304 110.586 189.261C110.406 190.219 110.499 191.212 110.854 192.114C111.209 193.016 111.81 193.786 112.581 194.328C113.351 194.87 114.257 195.159 115.184 195.158C116.424 195.157 117.614 194.637 118.491 193.713C119.368 192.788 119.861 191.535 119.862 190.228Z" fill="#FF7F48"/>
<path d="M117.557 187.727H112.811V192.728H117.557V187.727Z" fill="#FF7F48" stroke="#263238" stroke-width="1.33739" stroke-linecap="round" stroke-linejoin="round"/>
<path d="M171.71 133.48C171.71 133.48 165.493 116.833 171.028 114.854C176.79 112.791 176.536 123.784 176.313 129.142C175.844 140.591 174.645 142.72 173.748 139.924L171.71 133.48ZM169.841 146.466C171.549 148.816 172.031 146.382 168.949 135.388C167.504 130.218 164.364 119.761 159.548 123.685C154.923 127.445 165.93 141.075 165.93 141.075L169.841 146.466ZM166.541 156.007C168.169 157.53 168.2 155.608 164.333 147.669C162.518 143.952 158.678 136.427 155.534 140.149C152.514 143.74 162.803 152.468 162.803 152.468L166.541 156.007ZM162.973 167.353C164.601 168.88 164.632 166.953 160.765 159.02C158.95 155.302 155.11 147.773 151.966 151.5C148.964 155.1 159.222 163.828 159.222 163.828L162.973 167.353ZM173.275 144.257C170.671 145.329 172.74 146.494 183.618 146.461C188.72 146.461 199.139 146.217 196.918 140.243C194.791 134.505 179.296 141.813 179.296 141.813L173.275 144.257ZM170.31 151.89C167.553 152.393 169.364 153.972 180.032 156.219C185.032 157.276 195.286 159.227 194.237 152.929C193.234 146.856 176.67 150.776 176.67 150.776L170.31 151.89ZM166.991 161.21C164.645 161.567 166.144 162.944 175.113 165.106C179.319 166.122 187.949 168.025 187.2 162.653C186.486 157.483 172.392 160.406 172.392 160.406L166.991 161.21ZM164.471 169.844C162.175 170.46 163.802 171.663 172.945 172.81C177.227 173.345 186 174.276 184.72 169.017C183.484 163.969 169.765 168.439 169.765 168.439L164.471 169.844ZM177.914 134.89C176.576 138.048 179.354 137.569 188.801 128.883C193.225 124.809 202.1 116.283 195.072 112.039C188.324 107.959 181.067 127.643 181.067 127.643L177.914 134.89ZM164.819 181.091C163.405 181.961 164.793 182.299 171.277 180.936C174.319 180.301 180.505 178.891 178.413 176.109C176.389 173.43 168.093 179.07 168.093 179.07L164.819 181.091Z" fill="#FF7F48"/>
<path opacity="0.3" d="M171.71 133.48C171.71 133.48 165.493 116.833 171.028 114.854C176.79 112.791 176.536 123.784 176.313 129.142C175.844 140.591 174.645 142.72 173.748 139.924L171.71 133.48ZM169.841 146.466C171.549 148.816 172.031 146.382 168.949 135.388C167.504 130.218 164.364 119.761 159.548 123.685C154.923 127.445 165.93 141.075 165.93 141.075L169.841 146.466ZM166.541 156.007C168.169 157.53 168.2 155.608 164.333 147.669C162.518 143.952 158.678 136.427 155.534 140.149C152.514 143.74 162.803 152.468 162.803 152.468L166.541 156.007ZM162.973 167.353C164.601 168.88 164.632 166.953 160.765 159.02C158.95 155.302 155.11 147.773 151.966 151.5C148.964 155.1 159.222 163.828 159.222 163.828L162.973 167.353ZM173.275 144.257C170.671 145.329 172.74 146.494 183.618 146.461C188.72 146.461 199.139 146.217 196.918 140.243C194.791 134.505 179.296 141.813 179.296 141.813L173.275 144.257ZM170.31 151.89C167.553 152.393 169.364 153.972 180.032 156.219C185.032 157.276 195.286 159.227 194.237 152.929C193.234 146.856 176.67 150.776 176.67 150.776L170.31 151.89ZM166.991 161.21C164.645 161.567 166.144 162.944 175.113 165.106C179.319 166.122 187.949 168.025 187.2 162.653C186.486 157.483 172.392 160.406 172.392 160.406L166.991 161.21ZM164.471 169.844C162.175 170.46 163.802 171.663 172.945 172.81C177.227 173.345 186 174.276 184.72 169.017C183.484 163.969 169.765 168.439 169.765 168.439L164.471 169.844ZM177.914 134.89C176.576 138.048 179.354 137.569 188.801 128.883C193.225 124.809 202.1 116.283 195.072 112.039C188.324 107.959 181.067 127.643 181.067 127.643L177.914 134.89ZM164.819 181.091C163.405 181.961 164.793 182.299 171.277 180.936C174.319 180.301 180.505 178.891 178.413 176.109C176.389 173.43 168.093 179.07 168.093 179.07L164.819 181.091Z" fill="white"/>
<path d="M174.453 141.23L173.369 122.228L174.453 141.23ZM171.023 147.5L164.173 131.158L171.023 147.5ZM188.703 142.748L172.285 145.23L188.703 142.748ZM167.473 156.308L158.584 144.29L167.473 156.308ZM169.034 152.623L181.281 153.272L169.034 152.623ZM166.135 161.84L175.501 162.817L166.135 161.84ZM163.874 167.696L159.222 160.322L163.874 167.696ZM163.339 170.3L174.35 170.408L163.339 170.3ZM161.109 192.07C161.182 192.064 161.251 192.028 161.299 191.969C161.348 191.91 161.372 191.833 161.367 191.755C160.667 180.673 164.735 162.521 171.26 147.622C175.43 138.1 191.776 119.385 191.949 119.197C192.002 119.141 192.032 119.066 192.032 118.988C192.032 118.909 192.002 118.834 191.949 118.778C191.924 118.751 191.893 118.729 191.86 118.715C191.826 118.7 191.79 118.692 191.753 118.692C191.717 118.692 191.681 118.7 191.647 118.715C191.613 118.729 191.583 118.751 191.557 118.778C191.392 118.966 174.979 137.752 170.773 147.359C164.128 162.62 160.114 180.442 160.828 191.793C160.833 191.868 160.865 191.938 160.917 191.989C160.969 192.04 161.037 192.069 161.109 192.07ZM174.448 141.522C174.522 141.517 174.591 141.482 174.64 141.424C174.69 141.365 174.715 141.289 174.712 141.212L173.646 122.2C173.644 122.161 173.635 122.123 173.619 122.088C173.603 122.053 173.581 122.022 173.554 121.996C173.526 121.97 173.494 121.951 173.46 121.938C173.425 121.925 173.388 121.92 173.351 121.923C173.278 121.928 173.209 121.963 173.159 122.021C173.11 122.079 173.084 122.155 173.088 122.233L174.172 141.235C174.175 141.31 174.206 141.38 174.257 141.432C174.309 141.484 174.377 141.512 174.448 141.512V141.522ZM171.121 147.768C171.188 147.736 171.24 147.678 171.267 147.606C171.294 147.534 171.293 147.454 171.264 147.383L164.409 131.041C164.379 130.97 164.324 130.914 164.256 130.886C164.187 130.857 164.111 130.859 164.043 130.89C163.976 130.921 163.923 130.98 163.896 131.052C163.869 131.124 163.871 131.205 163.901 131.276L170.751 147.618C170.773 147.67 170.808 147.715 170.853 147.746C170.898 147.778 170.951 147.795 171.005 147.796C171.051 147.799 171.097 147.789 171.139 147.768H171.121ZM172.308 145.512L188.716 143.04C188.756 143.039 188.795 143.029 188.83 143.011C188.866 142.993 188.898 142.968 188.924 142.936C188.95 142.904 188.969 142.867 188.98 142.827C188.991 142.787 188.994 142.745 188.989 142.704C188.983 142.662 188.97 142.622 188.949 142.587C188.928 142.552 188.9 142.521 188.867 142.498C188.834 142.475 188.797 142.459 188.758 142.452C188.719 142.445 188.679 142.447 188.64 142.457L172.232 144.929C172.158 144.934 172.09 144.97 172.042 145.028C171.993 145.086 171.968 145.162 171.973 145.239C171.978 145.317 172.012 145.389 172.067 145.44C172.122 145.491 172.194 145.517 172.267 145.512H172.308ZM167.629 156.543C167.687 156.495 167.725 156.424 167.734 156.347C167.744 156.269 167.723 156.191 167.678 156.129L158.785 144.088C158.739 144.026 158.672 143.985 158.598 143.975C158.524 143.965 158.449 143.986 158.39 144.034C158.331 144.082 158.292 144.153 158.283 144.231C158.273 144.309 158.293 144.387 158.339 144.45L167.25 156.51C167.276 156.545 167.309 156.574 167.347 156.593C167.385 156.613 167.426 156.623 167.469 156.623C167.535 156.619 167.598 156.591 167.647 156.543H167.629ZM181.526 153.286C181.529 153.208 181.502 153.132 181.452 153.075C181.402 153.018 181.333 152.984 181.259 152.98L169.034 152.327C168.965 152.332 168.901 152.363 168.853 152.415C168.804 152.467 168.776 152.536 168.773 152.608C168.769 152.681 168.791 152.752 168.835 152.808C168.878 152.865 168.939 152.903 169.007 152.914L181.254 153.568C181.328 153.57 181.4 153.542 181.454 153.489C181.508 153.437 181.541 153.364 181.544 153.286H181.526ZM175.76 162.846C175.764 162.807 175.761 162.768 175.751 162.73C175.74 162.693 175.723 162.658 175.7 162.628C175.676 162.598 175.648 162.573 175.615 162.554C175.582 162.536 175.547 162.525 175.51 162.521L166.144 161.548C166.108 161.545 166.071 161.548 166.036 161.559C166.001 161.571 165.968 161.589 165.94 161.613C165.912 161.638 165.889 161.668 165.872 161.702C165.855 161.736 165.844 161.773 165.841 161.812C165.834 161.889 165.857 161.965 165.904 162.025C165.95 162.085 166.017 162.123 166.09 162.131L175.456 163.109H175.483C175.555 163.114 175.626 163.089 175.681 163.04C175.736 162.991 175.771 162.921 175.778 162.846H175.76ZM164.008 167.94C164.07 167.897 164.113 167.83 164.128 167.753C164.143 167.677 164.128 167.597 164.088 167.532L159.458 160.157C159.416 160.094 159.352 160.05 159.28 160.035C159.207 160.02 159.132 160.035 159.07 160.077C159.008 160.12 158.965 160.188 158.95 160.264C158.935 160.341 158.949 160.421 158.99 160.486L163.62 167.86C163.646 167.901 163.681 167.934 163.722 167.957C163.764 167.98 163.809 167.992 163.856 167.992C163.916 167.996 163.976 167.977 164.025 167.94H164.008ZM174.631 170.408C174.63 170.331 174.601 170.257 174.549 170.201C174.498 170.146 174.428 170.114 174.355 170.112L163.343 170.004C163.27 170.004 163.199 170.034 163.148 170.089C163.096 170.144 163.067 170.218 163.067 170.295C163.065 170.334 163.072 170.373 163.085 170.409C163.098 170.445 163.119 170.478 163.145 170.506C163.17 170.533 163.201 170.555 163.235 170.57C163.27 170.585 163.306 170.592 163.343 170.591L174.355 170.699C174.392 170.701 174.43 170.695 174.465 170.681C174.501 170.668 174.533 170.647 174.561 170.619C174.588 170.592 174.61 170.559 174.625 170.523C174.64 170.487 174.649 170.448 174.649 170.408H174.631ZM159.855 187.76C159.878 187.709 161.755 182.257 167.402 180.955C167.474 180.938 167.538 180.891 167.578 180.825C167.618 180.759 167.632 180.679 167.616 180.602C167.598 180.527 167.553 180.462 167.491 180.421C167.428 180.38 167.353 180.366 167.281 180.381C161.327 181.754 159.351 187.511 159.329 187.568C159.306 187.642 159.311 187.723 159.344 187.793C159.376 187.863 159.433 187.917 159.503 187.944H159.592C159.651 187.949 159.711 187.934 159.761 187.901C159.812 187.868 159.851 187.819 159.873 187.76H159.855ZM161.109 192.07C161.182 192.064 161.251 192.028 161.299 191.969C161.348 191.91 161.372 191.833 161.367 191.755C160.667 180.673 164.735 162.521 171.26 147.622C175.43 138.1 191.776 119.385 191.949 119.197C192.002 119.141 192.032 119.066 192.032 118.988C192.032 118.909 192.002 118.834 191.949 118.778C191.924 118.751 191.893 118.729 191.86 118.715C191.826 118.7 191.79 118.692 191.753 118.692C191.717 118.692 191.681 118.7 191.647 118.715C191.613 118.729 191.583 118.751 191.557 118.778C191.392 118.966 174.979 137.752 170.773 147.359C164.128 162.62 160.114 180.442 160.828 191.793C160.833 191.868 160.865 191.938 160.917 191.989C160.969 192.04 161.037 192.069 161.109 192.07ZM174.448 141.522C174.522 141.517 174.591 141.482 174.64 141.424C174.69 141.365 174.715 141.289 174.712 141.212L173.646 122.2C173.644 122.161 173.635 122.123 173.619 122.088C173.603 122.053 173.581 122.022 173.554 121.996C173.526 121.97 173.494 121.951 173.46 121.938C173.425 121.925 173.388 121.92 173.351 121.923C173.278 121.928 173.209 121.963 173.159 122.021C173.11 122.079 173.084 122.155 173.088 122.233L174.172 141.235C174.175 141.31 174.206 141.38 174.257 141.432C174.309 141.484 174.377 141.512 174.448 141.512V141.522ZM171.121 147.768C171.188 147.736 171.24 147.678 171.267 147.606C171.294 147.534 171.293 147.454 171.264 147.383L164.409 131.041C164.379 130.97 164.324 130.914 164.256 130.886C164.187 130.857 164.111 130.859 164.043 130.89C163.976 130.921 163.923 130.98 163.896 131.052C163.869 131.124 163.871 131.205 163.901 131.276L170.751 147.618C170.773 147.67 170.808 147.715 170.853 147.746C170.898 147.778 170.951 147.795 171.005 147.796C171.051 147.799 171.097 147.789 171.139 147.768H171.121ZM172.308 145.512L188.716 143.04C188.756 143.039 188.795 143.029 188.83 143.011C188.866 142.993 188.898 142.968 188.924 142.936C188.95 142.904 188.969 142.867 188.98 142.827C188.991 142.787 188.994 142.745 188.989 142.704C188.983 142.662 188.97 142.622 188.949 142.587C188.928 142.552 188.9 142.521 188.867 142.498C188.834 142.475 188.797 142.459 188.758 142.452C188.719 142.445 188.679 142.447 188.64 142.457L172.232 144.929C172.158 144.934 172.09 144.97 172.042 145.028C171.993 145.086 171.968 145.162 171.973 145.239C171.978 145.317 172.012 145.389 172.067 145.44C172.122 145.491 172.194 145.517 172.267 145.512H172.308ZM167.629 156.543C167.687 156.495 167.725 156.424 167.734 156.347C167.744 156.269 167.723 156.191 167.678 156.129L158.785 144.088C158.762 144.057 158.734 144.031 158.702 144.012C158.67 143.992 158.635 143.98 158.598 143.975C158.562 143.97 158.524 143.972 158.489 143.982C158.453 143.993 158.419 144.01 158.39 144.034C158.361 144.058 158.336 144.087 158.318 144.121C158.3 144.155 158.288 144.192 158.283 144.231C158.278 144.269 158.281 144.308 158.29 144.346C158.3 144.384 158.316 144.419 158.339 144.45L167.25 156.51C167.276 156.545 167.309 156.574 167.347 156.593C167.385 156.613 167.426 156.623 167.469 156.623C167.535 156.619 167.598 156.591 167.647 156.543H167.629ZM181.526 153.286C181.529 153.208 181.502 153.132 181.452 153.075C181.402 153.018 181.333 152.984 181.259 152.98L169.034 152.327C168.965 152.332 168.901 152.363 168.853 152.415C168.804 152.467 168.776 152.536 168.773 152.608C168.769 152.681 168.791 152.752 168.835 152.808C168.878 152.865 168.939 152.903 169.007 152.914L181.254 153.568C181.328 153.57 181.4 153.542 181.454 153.489C181.508 153.437 181.541 153.364 181.544 153.286H181.526ZM175.76 162.846C175.764 162.807 175.761 162.768 175.751 162.73C175.74 162.693 175.723 162.658 175.7 162.628C175.676 162.598 175.648 162.573 175.615 162.554C175.582 162.536 175.547 162.525 175.51 162.521L166.144 161.548C166.108 161.545 166.071 161.548 166.036 161.559C166.001 161.571 165.968 161.589 165.94 161.613C165.912 161.638 165.889 161.668 165.872 161.702C165.855 161.736 165.844 161.773 165.841 161.812C165.834 161.889 165.857 161.965 165.904 162.025C165.95 162.085 166.017 162.123 166.09 162.131L175.456 163.109H175.483C175.555 163.114 175.626 163.089 175.681 163.04C175.736 162.991 175.771 162.921 175.778 162.846H175.76ZM164.008 167.94C164.07 167.897 164.113 167.83 164.128 167.753C164.143 167.677 164.128 167.597 164.088 167.532L159.458 160.157C159.416 160.094 159.352 160.05 159.28 160.035C159.207 160.02 159.132 160.035 159.07 160.077C159.008 160.12 158.965 160.188 158.95 160.264C158.935 160.341 158.949 160.421 158.99 160.486L163.62 167.86C163.646 167.901 163.681 167.934 163.722 167.957C163.764 167.98 163.809 167.992 163.856 167.992C163.916 167.996 163.976 167.977 164.025 167.94H164.008ZM174.631 170.408C174.63 170.331 174.601 170.257 174.549 170.201C174.498 170.146 174.428 170.114 174.355 170.112L163.343 170.004C163.27 170.004 163.199 170.034 163.148 170.089C163.096 170.144 163.067 170.218 163.067 170.295C163.065 170.334 163.072 170.373 163.085 170.409C163.098 170.445 163.119 170.478 163.145 170.506C163.17 170.533 163.201 170.555 163.235 170.57C163.27 170.585 163.306 170.592 163.343 170.591L174.355 170.699C174.392 170.701 174.43 170.695 174.465 170.681C174.501 170.668 174.533 170.647 174.561 170.619C174.588 170.592 174.61 170.559 174.625 170.523C174.64 170.487 174.649 170.448 174.649 170.408H174.631ZM159.855 187.76C159.878 187.709 161.755 182.257 167.402 180.955C167.474 180.938 167.538 180.891 167.578 180.825C167.618 180.759 167.632 180.679 167.616 180.602C167.598 180.527 167.553 180.462 167.491 180.421C167.428 180.38 167.353 180.366 167.281 180.381C161.327 181.754 159.351 187.511 159.329 187.568C159.306 187.642 159.311 187.723 159.344 187.793C159.376 187.863 159.433 187.917 159.503 187.944H159.592C159.651 187.949 159.711 187.934 159.761 187.901C159.812 187.868 159.851 187.819 159.873 187.76H159.855Z" fill="#FF7F48"/>
<path opacity="0.2" d="M174.453 141.23L173.369 122.228L174.453 141.23ZM171.023 147.5L164.173 131.158L171.023 147.5ZM188.703 142.748L172.285 145.23L188.703 142.748ZM167.473 156.308L158.584 144.29L167.473 156.308ZM169.034 152.623L181.281 153.272L169.034 152.623ZM166.135 161.84L175.501 162.817L166.135 161.84ZM163.874 167.696L159.222 160.322L163.874 167.696ZM163.339 170.3L174.35 170.408L163.339 170.3ZM161.109 192.07C161.182 192.064 161.251 192.028 161.299 191.969C161.348 191.91 161.372 191.833 161.367 191.755C160.667 180.673 164.735 162.521 171.26 147.622C175.43 138.1 191.776 119.385 191.949 119.197C192.002 119.141 192.032 119.066 192.032 118.988C192.032 118.909 192.002 118.834 191.949 118.778C191.924 118.751 191.893 118.729 191.86 118.715C191.826 118.7 191.79 118.692 191.753 118.692C191.717 118.692 191.681 118.7 191.647 118.715C191.613 118.729 191.583 118.751 191.557 118.778C191.392 118.966 174.979 137.752 170.773 147.359C164.128 162.62 160.114 180.442 160.828 191.793C160.833 191.868 160.865 191.938 160.917 191.989C160.969 192.04 161.037 192.069 161.109 192.07ZM174.448 141.522C174.522 141.517 174.591 141.482 174.64 141.424C174.69 141.365 174.715 141.289 174.712 141.212L173.646 122.2C173.644 122.161 173.635 122.123 173.619 122.088C173.603 122.053 173.581 122.022 173.554 121.996C173.526 121.97 173.494 121.951 173.46 121.938C173.425 121.925 173.388 121.92 173.351 121.923C173.278 121.928 173.209 121.963 173.159 122.021C173.11 122.079 173.084 122.155 173.088 122.233L174.172 141.235C174.175 141.31 174.206 141.38 174.257 141.432C174.309 141.484 174.377 141.512 174.448 141.512V141.522ZM171.121 147.768C171.188 147.736 171.24 147.678 171.267 147.606C171.294 147.534 171.293 147.454 171.264 147.383L164.409 131.041C164.379 130.97 164.324 130.914 164.256 130.886C164.187 130.857 164.111 130.859 164.043 130.89C163.976 130.921 163.923 130.98 163.896 131.052C163.869 131.124 163.871 131.205 163.901 131.276L170.751 147.618C170.773 147.67 170.808 147.715 170.853 147.746C170.898 147.778 170.951 147.795 171.005 147.796C171.051 147.799 171.097 147.789 171.139 147.768H171.121ZM172.308 145.512L188.716 143.04C188.756 143.039 188.795 143.029 188.83 143.011C188.866 142.993 188.898 142.968 188.924 142.936C188.95 142.904 188.969 142.867 188.98 142.827C188.991 142.787 188.994 142.745 188.989 142.704C188.983 142.662 188.97 142.622 188.949 142.587C188.928 142.552 188.9 142.521 188.867 142.498C188.834 142.475 188.797 142.459 188.758 142.452C188.719 142.445 188.679 142.447 188.64 142.457L172.232 144.929C172.158 144.934 172.09 144.97 172.042 145.028C171.993 145.086 171.968 145.162 171.973 145.239C171.978 145.317 172.012 145.389 172.067 145.44C172.122 145.491 172.194 145.517 172.267 145.512H172.308ZM167.629 156.543C167.687 156.495 167.725 156.424 167.734 156.347C167.744 156.269 167.723 156.191 167.678 156.129L158.785 144.088C158.739 144.026 158.672 143.985 158.598 143.975C158.524 143.965 158.449 143.986 158.39 144.034C158.331 144.082 158.292 144.153 158.283 144.231C158.273 144.309 158.293 144.387 158.339 144.45L167.25 156.51C167.276 156.545 167.309 156.574 167.347 156.593C167.385 156.613 167.426 156.623 167.469 156.623C167.535 156.619 167.598 156.591 167.647 156.543H167.629ZM181.526 153.286C181.529 153.208 181.502 153.132 181.452 153.075C181.402 153.018 181.333 152.984 181.259 152.98L169.034 152.327C168.965 152.332 168.901 152.363 168.853 152.415C168.804 152.467 168.776 152.536 168.773 152.608C168.769 152.681 168.791 152.752 168.835 152.808C168.878 152.865 168.939 152.903 169.007 152.914L181.254 153.568C181.328 153.57 181.4 153.542 181.454 153.489C181.508 153.437 181.541 153.364 181.544 153.286H181.526ZM175.76 162.846C175.764 162.807 175.761 162.768 175.751 162.73C175.74 162.693 175.723 162.658 175.7 162.628C175.676 162.598 175.648 162.573 175.615 162.554C175.582 162.536 175.547 162.525 175.51 162.521L166.144 161.548C166.108 161.545 166.071 161.548 166.036 161.559C166.001 161.571 165.968 161.589 165.94 161.613C165.912 161.638 165.889 161.668 165.872 161.702C165.855 161.736 165.844 161.773 165.841 161.812C165.834 161.889 165.857 161.965 165.904 162.025C165.95 162.085 166.017 162.123 166.09 162.131L175.456 163.109H175.483C175.555 163.114 175.626 163.089 175.681 163.04C175.736 162.991 175.771 162.921 175.778 162.846H175.76ZM164.008 167.94C164.07 167.897 164.113 167.83 164.128 167.753C164.143 167.677 164.128 167.597 164.088 167.532L159.458 160.157C159.416 160.094 159.352 160.05 159.28 160.035C159.207 160.02 159.132 160.035 159.07 160.077C159.008 160.12 158.965 160.188 158.95 160.264C158.935 160.341 158.949 160.421 158.99 160.486L163.62 167.86C163.646 167.901 163.681 167.934 163.722 167.957C163.764 167.98 163.809 167.992 163.856 167.992C163.916 167.996 163.976 167.977 164.025 167.94H164.008ZM174.631 170.408C174.63 170.331 174.601 170.257 174.549 170.201C174.498 170.146 174.428 170.114 174.355 170.112L163.343 170.004C163.27 170.004 163.199 170.034 163.148 170.089C163.096 170.144 163.067 170.218 163.067 170.295C163.065 170.334 163.072 170.373 163.085 170.409C163.098 170.445 163.119 170.478 163.145 170.506C163.17 170.533 163.201 170.555 163.235 170.57C163.27 170.585 163.306 170.592 163.343 170.591L174.355 170.699C174.392 170.701 174.43 170.695 174.465 170.681C174.501 170.668 174.533 170.647 174.561 170.619C174.588 170.592 174.61 170.559 174.625 170.523C174.64 170.487 174.649 170.448 174.649 170.408H174.631ZM159.855 187.76C159.878 187.709 161.755 182.257 167.402 180.955C167.474 180.938 167.538 180.891 167.578 180.825C167.618 180.759 167.632 180.679 167.616 180.602C167.598 180.527 167.553 180.462 167.491 180.421C167.428 180.38 167.353 180.366 167.281 180.381C161.327 181.754 159.351 187.511 159.329 187.568C159.306 187.642 159.311 187.723 159.344 187.793C159.376 187.863 159.433 187.917 159.503 187.944H159.592C159.651 187.949 159.711 187.934 159.761 187.901C159.812 187.868 159.851 187.819 159.873 187.76H159.855ZM161.109 192.07C161.182 192.064 161.251 192.028 161.299 191.969C161.348 191.91 161.372 191.833 161.367 191.755C160.667 180.673 164.735 162.521 171.26 147.622C175.43 138.1 191.776 119.385 191.949 119.197C192.002 119.141 192.032 119.066 192.032 118.988C192.032 118.909 192.002 118.834 191.949 118.778C191.924 118.751 191.893 118.729 191.86 118.715C191.826 118.7 191.79 118.692 191.753 118.692C191.717 118.692 191.681 118.7 191.647 118.715C191.613 118.729 191.583 118.751 191.557 118.778C191.392 118.966 174.979 137.752 170.773 147.359C164.128 162.62 160.114 180.442 160.828 191.793C160.833 191.868 160.865 191.938 160.917 191.989C160.969 192.04 161.037 192.069 161.109 192.07ZM174.448 141.522C174.522 141.517 174.591 141.482 174.64 141.424C174.69 141.365 174.715 141.289 174.712 141.212L173.646 122.2C173.644 122.161 173.635 122.123 173.619 122.088C173.603 122.053 173.581 122.022 173.554 121.996C173.526 121.97 173.494 121.951 173.46 121.938C173.425 121.925 173.388 121.92 173.351 121.923C173.278 121.928 173.209 121.963 173.159 122.021C173.11 122.079 173.084 122.155 173.088 122.233L174.172 141.235C174.175 141.31 174.206 141.38 174.257 141.432C174.309 141.484 174.377 141.512 174.448 141.512V141.522ZM171.121 147.768C171.188 147.736 171.24 147.678 171.267 147.606C171.294 147.534 171.293 147.454 171.264 147.383L164.409 131.041C164.379 130.97 164.324 130.914 164.256 130.886C164.187 130.857 164.111 130.859 164.043 130.89C163.976 130.921 163.923 130.98 163.896 131.052C163.869 131.124 163.871 131.205 163.901 131.276L170.751 147.618C170.773 147.67 170.808 147.715 170.853 147.746C170.898 147.778 170.951 147.795 171.005 147.796C171.051 147.799 171.097 147.789 171.139 147.768H171.121ZM172.308 145.512L188.716 143.04C188.756 143.039 188.795 143.029 188.83 143.011C188.866 142.993 188.898 142.968 188.924 142.936C188.95 142.904 188.969 142.867 188.98 142.827C188.991 142.787 188.994 142.745 188.989 142.704C188.983 142.662 188.97 142.622 188.949 142.587C188.928 142.552 188.9 142.521 188.867 142.498C188.834 142.475 188.797 142.459 188.758 142.452C188.719 142.445 188.679 142.447 188.64 142.457L172.232 144.929C172.158 144.934 172.09 144.97 172.042 145.028C171.993 145.086 171.968 145.162 171.973 145.239C171.978 145.317 172.012 145.389 172.067 145.44C172.122 145.491 172.194 145.517 172.267 145.512H172.308ZM167.629 156.543C167.687 156.495 167.725 156.424 167.734 156.347C167.744 156.269 167.723 156.191 167.678 156.129L158.785 144.088C158.762 144.057 158.734 144.031 158.702 144.012C158.67 143.992 158.635 143.98 158.598 143.975C158.562 143.97 158.524 143.972 158.489 143.982C158.453 143.993 158.419 144.01 158.39 144.034C158.361 144.058 158.336 144.087 158.318 144.121C158.3 144.155 158.288 144.192 158.283 144.231C158.278 144.269 158.281 144.308 158.29 144.346C158.3 144.384 158.316 144.419 158.339 144.45L167.25 156.51C167.276 156.545 167.309 156.574 167.347 156.593C167.385 156.613 167.426 156.623 167.469 156.623C167.535 156.619 167.598 156.591 167.647 156.543H167.629ZM181.526 153.286C181.529 153.208 181.502 153.132 181.452 153.075C181.402 153.018 181.333 152.984 181.259 152.98L169.034 152.327C168.965 152.332 168.901 152.363 168.853 152.415C168.804 152.467 168.776 152.536 168.773 152.608C168.769 152.681 168.791 152.752 168.835 152.808C168.878 152.865 168.939 152.903 169.007 152.914L181.254 153.568C181.328 153.57 181.4 153.542 181.454 153.489C181.508 153.437 181.541 153.364 181.544 153.286H181.526ZM175.76 162.846C175.764 162.807 175.761 162.768 175.751 162.73C175.74 162.693 175.723 162.658 175.7 162.628C175.676 162.598 175.648 162.573 175.615 162.554C175.582 162.536 175.547 162.525 175.51 162.521L166.144 161.548C166.108 161.545 166.071 161.548 166.036 161.559C166.001 161.571 165.968 161.589 165.94 161.613C165.912 161.638 165.889 161.668 165.872 161.702C165.855 161.736 165.844 161.773 165.841 161.812C165.834 161.889 165.857 161.965 165.904 162.025C165.95 162.085 166.017 162.123 166.09 162.131L175.456 163.109H175.483C175.555 163.114 175.626 163.089 175.681 163.04C175.736 162.991 175.771 162.921 175.778 162.846H175.76ZM164.008 167.94C164.07 167.897 164.113 167.83 164.128 167.753C164.143 167.677 164.128 167.597 164.088 167.532L159.458 160.157C159.416 160.094 159.352 160.05 159.28 160.035C159.207 160.02 159.132 160.035 159.07 160.077C159.008 160.12 158.965 160.188 158.95 160.264C158.935 160.341 158.949 160.421 158.99 160.486L163.62 167.86C163.646 167.901 163.681 167.934 163.722 167.957C163.764 167.98 163.809 167.992 163.856 167.992C163.916 167.996 163.976 167.977 164.025 167.94H164.008ZM174.631 170.408C174.63 170.331 174.601 170.257 174.549 170.201C174.498 170.146 174.428 170.114 174.355 170.112L163.343 170.004C163.27 170.004 163.199 170.034 163.148 170.089C163.096 170.144 163.067 170.218 163.067 170.295C163.065 170.334 163.072 170.373 163.085 170.409C163.098 170.445 163.119 170.478 163.145 170.506C163.17 170.533 163.201 170.555 163.235 170.57C163.27 170.585 163.306 170.592 163.343 170.591L174.355 170.699C174.392 170.701 174.43 170.695 174.465 170.681C174.501 170.668 174.533 170.647 174.561 170.619C174.588 170.592 174.61 170.559 174.625 170.523C174.64 170.487 174.649 170.448 174.649 170.408H174.631ZM159.855 187.76C159.878 187.709 161.755 182.257 167.402 180.955C167.474 180.938 167.538 180.891 167.578 180.825C167.618 180.759 167.632 180.679 167.616 180.602C167.598 180.527 167.553 180.462 167.491 180.421C167.428 180.38 167.353 180.366 167.281 180.381C161.327 181.754 159.351 187.511 159.329 187.568C159.306 187.642 159.311 187.723 159.344 187.793C159.376 187.863 159.433 187.917 159.503 187.944H159.592C159.651 187.949 159.711 187.934 159.761 187.901C159.812 187.868 159.851 187.819 159.873 187.76H159.855Z" fill="black"/>
<path d="M168.392 183.784H155.766V186.538H156.867L159.146 201.564H165.011L167.29 186.538H168.392V183.784Z" fill="#FF7F48"/>
<path opacity="0.3" d="M168.392 183.784H155.766V186.538H156.867L159.146 201.564H165.011L167.29 186.538H168.392V183.784Z" fill="white"/>
<path d="M54.7153 100.5L40.0285 95.4476L38.7217 91.8098L35.738 91.7111L30.3235 90.6301L30.9747 91.8098L37.7896 97.0221L39.471 97.9057L54.8312 106.361L54.7153 100.5Z" fill="white" stroke="#263238" stroke-width="1.00396" stroke-miterlimit="10"/>
<path d="M38.7217 91.8098L37.3213 90.9262L34.5248 92.0072L34.9887 92.5947L38.7217 91.8098Z" fill="white" stroke="#263238" stroke-width="1.00396" stroke-linejoin="round"/>
<path d="M54.7153 100.5L40.0285 95.4476L38.7217 91.8098L35.738 91.7111L30.3235 90.6301L30.9747 91.8098L37.7896 97.0221L39.471 97.9057L54.8312 106.361L54.7153 100.5Z" fill="white"/>
<path opacity="0.5" d="M54.7153 100.5L40.0285 95.4476L38.7217 91.8098L35.738 91.7111L30.3235 90.6301L30.9747 91.8098L37.7896 97.0221L39.471 97.9057L54.8312 106.361L54.7153 100.5Z" fill="#FF7F48" stroke="#263238" stroke-width="1.00396" stroke-miterlimit="10"/>
<path d="M54.7153 100.5L40.0285 95.4476L38.7217 91.8098L35.738 91.7111L30.3235 90.6301L30.9747 91.8098L37.7896 97.0221L39.471 97.9057L54.8312 106.361L54.7153 100.5Z" stroke="#263238" stroke-width="1.00396" stroke-miterlimit="10"/>
<path d="M38.7217 91.8098L37.3213 90.9262L34.5248 92.0072L34.9887 92.5947L38.7217 91.8098Z" fill="white"/>
<path opacity="0.5" d="M38.7217 91.8098L37.3213 90.9262L34.5248 92.0072L34.9887 92.5947L38.7217 91.8098Z" fill="#FF7F48" stroke="#263238" stroke-width="1.00396" stroke-linejoin="round"/>
<path d="M38.7217 91.8098L37.3213 90.9262L34.5248 92.0072L34.9887 92.5947L38.7217 91.8098Z" stroke="#263238" stroke-width="1.00396" stroke-linejoin="round"/>
<path d="M57.8328 67.7082C57.8328 67.7082 57.6053 69.8232 58.1718 71.1815C58.7382 72.5398 61.8825 77.1411 61.8825 77.1411L56.0131 82.0996C56.0131 82.0996 53.578 76.9296 53.1141 76.093C52.6503 75.2564 52.0928 71.6562 53.6047 69.0759C55.1167 66.4956 57.2931 65.8 57.8328 67.7082Z" fill="white"/>
<g style="mix-blend-mode:multiply" opacity="0.5">
<path d="M54.8178 74.5044L57.3645 80.0692L56.0087 82.1043L53.4486 77.2868L54.8178 74.5044Z" fill="#FF7F48"/>
</g>
<path d="M57.8328 67.7082C57.8328 67.7082 57.6053 69.8232 58.1718 71.1815C58.7382 72.5398 61.8825 77.1411 61.8825 77.1411L56.0131 82.0996C56.0131 82.0996 53.578 76.9296 53.1141 76.093C52.6503 75.2564 52.0928 71.6562 53.6047 69.0759C55.1167 66.4956 57.2931 65.8 57.8328 67.7082Z" stroke="#263238" stroke-width="1.00396" stroke-miterlimit="10"/>
<path d="M59.6525 63.8354C59.2912 61.4854 56.7357 56.7055 52.6815 56.8888C50.0501 57.011 48.8192 57.5703 47.6774 58.2518C46.7467 58.8297 45.8792 59.5137 45.0906 60.2916C43.1104 62.7967 42.4146 63.4829 42.7982 65.4005C42.7667 66.1654 42.8804 66.9292 43.1327 67.6471C43.7392 69.3532 44.154 70.4671 44.6803 71.2802C44.5197 72.0745 44.1005 74.1707 44.0782 74.6501C44.0559 75.1295 45.4162 74.7958 46.103 74.6125C47.3786 77.6205 49.7156 79.7073 50.4426 79.947C51.7092 80.3653 53.7118 78.1704 54.7733 76.469C55.8347 74.7676 55.0319 72.8547 55.0364 72.0933C55.0409 71.3319 57.4225 69.6587 58.3056 69.1276C59.1887 68.5965 60.0093 66.1807 59.6525 63.8354Z" fill="white"/>
<g style="mix-blend-mode:multiply" opacity="0.5">
<path d="M42.816 65.4005C42.7845 66.1654 42.8982 66.9292 43.1505 67.6471C43.7571 69.3532 44.1718 70.4671 44.6981 71.2802C44.5376 72.0745 44.1183 74.1707 44.096 74.6501C44.0737 75.1295 45.434 74.7958 46.1209 74.6125C47.3964 77.6205 49.7334 79.7073 50.4604 79.947C51.7271 80.3653 53.7296 78.1704 54.7911 76.469C55.0563 76.0442 55.2284 75.5626 55.2951 75.059C55.2371 74.8381 55.197 74.7018 55.197 74.7018C55.197 74.7018 54.5993 77.1223 53.413 76.8074C52.2266 76.4925 50.4114 73.9874 49.399 73.1226C48.3865 72.2578 48.8013 71.1204 48.6006 69.8326C48.3999 68.5448 45.4028 67.4121 45.2021 66.6742C45.0014 65.9363 45.7016 62.8813 45.7016 62.8813C45.7016 62.8813 46.8389 61.2833 46.5936 61.9413C46.4202 62.5118 46.3573 63.1133 46.4087 63.7099C46.46 64.3065 46.6245 64.8862 46.8924 65.4146C47.0804 65.8315 47.3787 66.1824 47.7513 66.425C48.124 66.6676 48.5552 66.7917 48.9931 66.7823L50.0813 61.1L47.7844 59.0978L45.1084 60.2728C43.1103 62.7967 42.428 63.4829 42.816 65.4005Z" fill="#FF7F48"/>
</g>
<path d="M59.6525 63.8354C59.2912 61.4854 56.7357 56.7055 52.6815 56.8888C50.0501 57.011 48.8192 57.5703 47.6774 58.2518C46.7467 58.8297 45.8792 59.5137 45.0906 60.2916C43.1104 62.7967 42.4146 63.4829 42.7982 65.4005C42.7667 66.1654 42.8804 66.9292 43.1327 67.6471C43.7392 69.3532 44.154 70.4671 44.6803 71.2802C44.5197 72.0745 44.1005 74.1707 44.0782 74.6501C44.0559 75.1295 45.4162 74.7958 46.103 74.6125C47.3786 77.6205 49.7156 79.7073 50.4426 79.947C51.7092 80.3653 53.7118 78.1704 54.7733 76.469C55.8347 74.7676 55.0319 72.8547 55.0364 72.0933C55.0409 71.3319 57.4225 69.6587 58.3056 69.1276C59.1887 68.5965 60.0093 66.1807 59.6525 63.8354Z" stroke="#263238" stroke-miterlimit="10"/>
<path d="M45.2333 69.8608L45.6793 71.205C45.6793 71.205 46.6382 71.5387 47.8067 70.1945" stroke="#263238" stroke-miterlimit="10" stroke-linecap="round"/>
<path d="M48.5292 76.14C48.5292 76.14 49.5907 76.0272 50.0189 74.4574" stroke="#263238" stroke-miterlimit="10" stroke-linecap="round"/>
<path d="M44.4885 68.7375C44.4885 68.7375 44.8052 67.727 46.7185 67.727" stroke="#263238" stroke-miterlimit="10" stroke-linecap="round"/>
<path d="M54.296 55.0182C52.9057 54.8075 51.5037 54.6945 50.0992 54.6798C50.0992 54.6798 45.8978 52.1277 41.8615 54.849C37.8252 57.5703 39.7654 62.3361 39.7654 63.5252C39.7654 64.7143 38.4719 64.719 39.2792 66.2512C40.0865 67.7834 42.816 66.9374 42.816 66.9374C42.8448 66.3595 42.9898 65.7946 43.2412 65.2802C43.4926 64.7657 43.8447 64.3133 44.2744 63.9529C45.7284 62.7638 46.888 62.5053 47.3696 62.8484C47.3696 62.8484 47.0485 65.4005 47.5302 66.4204C47.5302 66.4204 49.1447 67.2711 49.6309 67.2711C50.117 67.2711 49.3142 67.9902 50.9243 68.6294C51.2176 68.7404 51.5314 68.7782 51.8409 68.7399C52.1505 68.7016 52.4473 68.5881 52.7083 68.4085C52.9446 67.3745 53.462 65.8188 54.4254 66.1807C55.8392 66.7118 57.1281 70.3778 55.2148 71.628C57.5161 72.0698 60.3036 67.7787 60.4687 63.8683C60.6337 59.9579 56.6866 55.46 54.296 55.0182Z" fill="#263238"/>
<path d="M47.441 61.1705C47.441 61.1705 48.6274 60.4984 50.0813 61.9366C51.5353 63.3748 54.3629 65.2971 58.1093 64.2396" stroke="white" stroke-width="0.5" stroke-linecap="round" stroke-linejoin="round"/>
<path d="M47.276 60.019C47.276 60.019 48.0922 58.6748 49.4569 58.6748C50.8217 58.6748 54.0106 60.6911 56.5573 60.6911" stroke="white" stroke-width="0.5" stroke-linecap="round" stroke-linejoin="round"/>
<path d="M46.3483 62.6087C46.3483 62.6087 44.8007 60.5971 43.3467 62.228C41.8928 63.8589 42.816 65.4005 42.816 65.4005" stroke="white" stroke-width="0.5" stroke-linecap="round" stroke-linejoin="round"/>
<path d="M40.1623 63.9529C41.0492 63.1101 41.6005 61.9447 41.7055 60.6911C41.8883 58.5808 44.6223 56.7572 46.3483 58.4868" stroke="white" stroke-width="0.5" stroke-linecap="round" stroke-linejoin="round"/>
<path d="M42.981 56.2778C42.981 56.2778 45.715 53.4954 47.9896 57.0439" stroke="white" stroke-width="0.5" stroke-linecap="round" stroke-linejoin="round"/>
<path d="M65.2319 193.081C65.2319 193.081 66.9134 195.835 66.726 197.607L66.5432 199.379C66.5432 199.379 60.375 201.16 59.0682 201.16C57.7614 201.16 50.844 200.469 50.844 200.469L50.5452 199.219C50.5242 199.127 50.5341 199.029 50.5731 198.944C50.6121 198.858 50.6778 198.789 50.7592 198.749L56.9274 195.717L58.872 193.475L65.2319 193.081Z" fill="white" stroke="#263238" stroke-width="1.00396" stroke-miterlimit="10"/>
<path d="M60.0048 199.774C61.6773 199.91 64.8529 198.834 66.6948 198.147L66.5655 199.379C66.5655 199.379 60.375 201.16 59.0682 201.16C57.7615 201.16 50.844 200.469 50.844 200.469L50.6299 199.576C51.736 199.581 57.7927 199.595 60.0048 199.774Z" fill="#FF7F48" stroke="#263238" stroke-width="1.00396" stroke-miterlimit="10"/>
<path d="M56.9364 195.717L47.9584 199.835C47.9584 199.835 47.1913 201.86 47.9584 202.265C48.7255 202.669 65.4505 202.265 65.4505 202.265C65.4505 202.265 66.6056 199.064 64.7815 196.916C62.9574 194.768 56.9364 195.717 56.9364 195.717Z" fill="white" stroke="#263238" stroke-width="1.00396" stroke-miterlimit="10"/>
<path d="M65.4505 202.264C65.4505 202.264 48.7255 202.669 47.9584 202.264C47.5882 202.067 47.5748 201.498 47.6595 200.958H65.7449C65.6857 201.402 65.5872 201.84 65.4505 202.264Z" fill="#FF7F48" stroke="#263238" stroke-width="1.00396" stroke-miterlimit="10"/>
<path d="M52.6904 124.179C52.6904 124.179 50.3445 135.134 49.4569 141.987C48.5694 148.84 48.0476 162.568 48.2349 164.143C48.4222 165.717 57.7614 192.098 57.7614 192.098L58.6936 194.448L65.2319 193.071C65.2319 193.071 62.2437 183.032 61.1243 177.519C60.0048 172.006 57.5563 162.949 57.5563 161.374C57.5563 159.8 63.3543 129.729 63.769 127.755C64.1838 125.781 66.066 122.75 66.066 122.75L53.5467 122.482L52.6904 124.179Z" fill="#FF7F48" stroke="#263238" stroke-width="1.00396" stroke-miterlimit="10"/>
<path d="M52.6904 124.179C52.6904 124.179 51.3167 134.185 51.8832 141.141C52.4496 148.097 53.6672 162.907 53.6672 165.111C53.6672 167.315 57.0434 180.48 57.2352 184.616C57.534 190.59 57.1147 193.546 57.1147 193.546L56.914 195.713C56.914 195.713 60.8522 196.305 61.713 196.563C62.7072 196.833 63.7332 196.95 64.7592 196.911C64.7592 196.911 66.1908 190.27 66.1908 184.611C66.1908 178.953 65 167.306 64.4068 162.587C63.8137 157.868 65.6824 139.665 66.7439 136.267C67.8054 132.869 70.1246 125.673 68.5636 121.998C67.0026 118.323 52.6904 124.179 52.6904 124.179Z" fill="#FF7F48" stroke="#263238" stroke-width="1.00396" stroke-miterlimit="10"/>
<path d="M70.2985 120.156L70.1558 124.63C70.1558 124.63 67.6136 125.161 64.1883 125.786C61.3607 126.303 54.2603 125.65 51.8698 125.405C51.6519 125.385 51.4505 125.275 51.3094 125.099C51.1682 124.923 51.0987 124.695 51.116 124.465L51.348 120.423L70.2985 120.156Z" fill="#263238"/>
<path d="M60.3616 75.5525C60.3616 75.5525 56.3476 80.1256 54.8357 82.9691C53.3238 85.8126 52.7261 90.1695 52.1597 93.6005C51.5933 97.0315 53.1275 105.087 52.6949 108.786L51.3257 120.438C51.3257 120.438 51.0313 121.227 52.017 122.092C53.0026 122.957 57.815 123.272 62.1635 123.502C63.7512 123.587 68.4922 122.51 69.2683 122.459C70.2049 122.397 70.2361 121.143 70.2762 120.156C70.4635 115.517 71.2574 103.151 71.7792 97.7647C72.8541 86.7808 66.9714 76.1776 60.3616 75.5525Z" fill="white" stroke="#263238" stroke-width="1.00396" stroke-miterlimit="10"/>
<g style="mix-blend-mode:multiply">
<path d="M71.2886 104.011C71.467 101.572 71.6454 99.358 71.8015 97.7647C71.8461 97.2947 71.8729 96.8247 71.8952 96.3547L61.2313 98.2347L52.0705 94.9447C52.0715 96.9423 52.1787 98.9382 52.3916 100.923L61.3785 103.574L71.2886 104.011Z" fill="#FF7F48"/>
</g>
<g style="mix-blend-mode:multiply">
<path d="M59.9647 76.0131C59.3581 76.7228 58.1539 78.1657 57.0077 79.6979L63.778 86.95L66.008 86.01L59.9647 76.0131Z" fill="#FF7F48"/>
</g>
<path d="M60.3616 75.5525C60.3616 75.5525 56.3476 80.1256 54.8357 82.9691C54.3874 83.8333 54.0242 84.7436 53.7519 85.6857L61.8245 75.858C61.3476 75.7058 60.8576 75.6034 60.3616 75.5525Z" fill="#263238"/>
<g style="mix-blend-mode:multiply">
<path d="M52.4719 91.7487L61.2313 94.7849L71.8684 93.4971C71.7017 90.7047 71.113 87.9582 70.1246 85.3614L61.548 88.9851L53.8813 85.3238C53.2543 87.4237 52.7831 89.5718 52.4719 91.7487Z" fill="#FF7F48"/>
</g>
<g style="mix-blend-mode:multiply">
<path d="M67.5512 115.517C63.1084 116.303 58.5498 115.91 54.2871 114.374L52.1508 113.604L51.4862 119.244L53.9214 119.963C58.5507 121.327 63.3892 121.72 68.1622 121.119L70.129 120.87C70.2314 120.642 70.289 120.394 70.2985 120.141C70.352 118.886 70.4457 117.063 70.5661 114.971L67.5512 115.517Z" fill="#FF7F48"/>
</g>
<g style="mix-blend-mode:multiply">
<path d="M68.742 107.837C64.299 108.626 59.7394 108.232 55.4779 106.69L52.7573 105.708C52.8248 106.732 52.8114 107.76 52.7172 108.781L52.4005 111.493L55.1122 112.292C59.7397 113.658 64.5767 114.052 69.3485 113.453L70.6865 113.284C70.798 111.404 70.9274 109.402 71.0656 107.423L68.742 107.837Z" fill="#FF7F48"/>
</g>
<path d="M26.8988 87.9615L35.5224 95.2681L35.8941 94.7809L27.2705 87.4743L26.8988 87.9615Z" fill="#263238"/>
<path d="M64.5139 80.6238C64.5139 80.6238 67.676 82.8939 67.7474 88.2566C67.7786 90.6066 67.5467 92.8015 67.0338 96.6508C66.5209 100.5 63.3364 113.035 60.8567 114.558C58.3769 116.081 54.5279 113.204 54.5279 113.204L35.9119 100.181L31.4118 96.35L29.1818 91.9132L29.882 90.5032L35.3722 94.94L32.4153 92.0589L32.9951 91.2834L34.0655 92.0683L37.1875 93.2997L37.8698 97.9997L38.8332 98.6953L56.642 105.553C56.642 105.553 56.419 95.4523 56.584 93.5206C56.749 91.5889 56.9765 86.7338 58.9389 83.2135" fill="white"/>
<g style="mix-blend-mode:multiply" opacity="0.5">
<path d="M56.5171 97.9198C56.5171 101.407 56.6286 105.553 56.6286 105.553L38.8377 98.7235L37.8743 98.0279L37.1919 93.3279L34.0699 92.0965L33.004 91.2975L32.4242 92.073L35.3722 94.94L29.882 90.5032L29.2174 91.8897L31.4474 96.3265L35.9476 100.181L37.0804 100.975L61.6773 109.327L56.5171 97.9198Z" fill="#FF7F48"/>
</g>
<path d="M64.5139 80.6238C64.5139 80.6238 67.676 82.8939 67.7474 88.2566C67.7786 90.6066 67.5467 92.8015 67.0338 96.6508C66.5209 100.5 63.3364 113.035 60.8567 114.558C58.3769 116.081 54.5279 113.204 54.5279 113.204L35.9119 100.181L31.4118 96.35L29.1818 91.9132L29.882 90.5032L35.3722 94.94L32.4153 92.0589L32.9951 91.2834L34.0655 92.0683L37.1875 93.2997L37.8698 97.9997L38.8332 98.6953L56.642 105.553C56.642 105.553 56.419 95.4523 56.584 93.5206C56.749 91.5889 56.9765 86.7338 58.9389 83.2135" stroke="#263238" stroke-width="1.00396" stroke-miterlimit="10"/>
<path d="M56.642 105.553L63.439 110.723L65.2007 107.433C65.2007 107.433 66.4183 106.422 66.5967 105.661C66.7751 104.899 66.5476 103.663 66.7305 102.902C66.9134 102.14 67.8232 101.426 67.9079 99.5836C67.9927 97.7412 67.9079 96.2043 67.9079 96.2043C67.9079 96.2043 69.3797 89.8264 69.2192 87.0534C69.0586 84.2804 66.5209 79.3783 64.4871 79.2702C62.4534 79.1621 59.8086 79.4864 57.757 82.7576C55.7054 86.0288 56.1246 95.5792 55.8035 96.1761C55.4824 96.773 55.9284 99.7199 55.9284 99.7199C55.7501 99.86 55.6022 100.039 55.4946 100.244C55.3869 100.449 55.3219 100.675 55.304 100.909C55.2683 101.675 56.0533 103.56 56.0533 103.56L56.642 105.553Z" fill="white" stroke="#263238" stroke-width="1.00396" stroke-miterlimit="10"/>
<g style="mix-blend-mode:multiply">
<path d="M55.9819 93.7227C55.9959 94.5429 55.9377 95.3626 55.808 96.1714C55.5225 96.7072 55.8481 99.1277 55.9195 99.6212C59.7425 100.873 63.785 101.194 67.7429 100.561C67.828 100.234 67.8788 99.8986 67.8946 99.5601C67.9838 97.7224 67.8946 96.1808 67.8946 96.1808C67.8946 96.1808 68.0239 95.6121 68.2023 94.7473C64.1033 95.0219 59.9881 94.6769 55.9819 93.7227Z" fill="#FF7F48"/>
</g>
<g style="mix-blend-mode:multiply">
<path d="M57.4805 83.2793C56.8427 84.6282 56.4859 86.6539 56.2807 88.7078C60.3296 90.3361 64.6949 90.896 68.9962 90.3387C69.1678 89.2517 69.2439 88.1504 69.2237 87.0487C69.1464 86.1779 68.9512 85.3232 68.6439 84.5107C64.8881 84.6031 61.1366 84.1893 57.4805 83.2793Z" fill="#FF7F48"/>
</g>
<path d="M56.0533 103.612L56.6286 105.553L63.4256 110.723L65.1873 107.433C65.1873 107.433 66.4049 106.422 66.5833 105.661C66.6151 105.528 66.6346 105.393 66.6413 105.257C63.0594 105.191 59.5006 104.638 56.0533 103.612Z" fill="#263238"/>
<path d="M60.9726 196.502C60.9726 196.502 61.1243 192.432 61.8646 186.482C62.605 180.532 60.8255 172.081 60.5266 170.671C60.2278 169.261 60.6783 166.131 60.3795 165.031C60.0806 163.931 58.6356 159.241 59.4875 153.798C60.3393 148.356 61.0306 133.969 61.0306 133.969C61.0306 133.969 58.8854 132.131 58.2565 129.739C57.6276 127.347 58.1093 126.595 58.1093 126.595" stroke="#263238" stroke-width="1.00396" stroke-miterlimit="10"/>
<path d="M61.9672 126.815L61.1421 131.628" stroke="#263238" stroke-width="1.00396" stroke-miterlimit="10"/>
</g>
<defs>
<clipPath id="clip0_13_650">
<rect width="223" height="235" fill="white"/>
</clipPath>
</defs>
</svg>
