<svg width="179" height="151" viewBox="0 0 179 151" fill="none" xmlns="http://www.w3.org/2000/svg">
<path d="M144.575 136.845C144.575 136.888 119.715 136.924 89.0597 136.924C58.4041 136.924 33.5339 136.888 33.5339 136.845C33.5339 136.803 58.3898 136.767 89.0597 136.767C119.73 136.767 144.575 136.806 144.575 136.845Z" fill="#263238"/>
<path d="M120.352 99.8744C114.821 96.6158 113.568 90.5668 113.787 85.1278C113.822 84.2218 113.704 83.2614 114.216 82.4671C114.728 81.6729 115.924 81.1263 116.887 81.5068C117.685 81.8239 118.033 82.6091 118.48 83.2584C119.077 84.1232 119.952 84.8278 121.004 85.2908C121.688 85.5928 122.536 85.774 123.213 85.46C124.144 85.0281 124.251 83.95 124.244 83.044C124.244 81.3588 124.232 79.6756 124.208 77.9945C124.144 77.0918 124.253 76.1862 124.53 75.3127C124.863 74.4551 125.604 73.6608 126.617 73.4192C127.631 73.1776 128.894 73.6759 129.123 74.5577C129.163 74.9313 129.174 75.3065 129.156 75.6812C129.184 76.0587 129.392 76.4724 129.811 76.5872C130.23 76.7019 130.666 76.4392 130.989 76.1734C132.091 75.2674 132.843 74.0866 133.541 72.9209C134.239 71.7552 134.923 70.5562 135.925 69.5627C136.928 68.5691 138.313 67.7809 139.863 67.7054C141.414 67.6299 143.028 68.4332 143.415 69.7016C143.801 70.97 142.924 72.2656 141.983 73.2954C140.562 74.824 138.887 76.1717 137.01 77.2969C136.644 77.4657 136.351 77.7293 136.176 78.0489C135.943 78.6529 136.62 79.2569 137.325 79.4471C138.124 79.6706 138.99 79.6011 139.831 79.6857C140.672 79.7703 141.567 80.0783 141.886 80.7427C142.323 81.6668 141.406 82.6332 140.508 83.2674C138.704 84.5358 136.655 85.5338 134.45 86.218C133.663 86.4596 132.836 86.674 132.199 87.1391C131.561 87.6042 131.182 88.4165 131.565 89.0538C131.948 89.691 132.933 89.8933 133.76 89.7635C134.587 89.6336 135.32 89.2591 136.108 89.0085C137.579 88.5404 139.477 88.6249 140.404 89.697C140.691 90.0663 140.873 90.4868 140.935 90.9254C140.997 91.364 140.938 91.8087 140.762 92.2248C140.404 93.0526 139.852 93.8115 139.14 94.4565C136.796 96.8198 133.749 98.6154 130.312 99.66C126.9 100.657 123.739 100.928 120.349 99.8805" fill="#FF7F48"/>
<path d="M141.84 68.4513C141.84 68.4513 141.807 68.4815 141.736 68.5359L141.417 68.7744C141.138 68.9858 140.726 69.2939 140.207 69.7016C138.735 70.8544 137.369 72.0991 136.119 73.4252C135.32 74.2618 134.493 75.2101 133.613 76.2399C132.732 77.2697 131.823 78.3811 130.921 79.5619C129.959 80.8071 129.078 82.0955 128.282 83.4215C127.867 84.113 127.502 84.8348 127.126 85.5717L126.016 87.8216C124.553 90.6556 123.279 93.5563 122.2 96.5101C121.33 98.927 120.731 101.407 120.41 103.918C120.201 105.613 120.168 107.319 120.309 109.019C120.367 109.623 120.42 110.085 120.471 110.399C120.492 110.55 120.506 110.671 120.521 110.758V110.882C120.505 110.843 120.494 110.803 120.488 110.762C120.471 110.674 120.449 110.556 120.42 110.405C120.356 110.103 120.288 109.626 120.224 109.022C120.051 107.319 120.063 105.607 120.259 103.906C120.561 101.384 121.147 98.8926 122.01 96.4648C123.08 93.5027 124.351 90.5947 125.816 87.7551L126.954 85.5143C127.33 84.7805 127.699 84.0526 128.117 83.358C128.919 82.0281 129.807 80.7366 130.777 79.4894C131.694 78.2814 132.617 77.1882 133.487 76.1674C134.357 75.1467 135.199 74.1923 135.993 73.3588C137.256 72.0362 138.641 70.8001 140.135 69.6623C140.665 69.2607 141.088 68.9587 141.374 68.7563L141.707 68.5298C141.748 68.4999 141.792 68.4735 141.84 68.4513V68.4513Z" fill="#263238"/>
<path d="M128.164 83.352C128.113 83.2276 128.079 83.099 128.06 82.9685C128.003 82.7178 127.938 82.3645 127.863 81.9054C127.709 80.9994 127.552 79.7582 127.384 78.3841C127.215 77.01 127.026 75.7658 126.868 74.8688C126.786 74.4219 126.714 74.0625 126.664 73.8118C126.625 73.6835 126.604 73.5517 126.603 73.4192C126.665 73.5402 126.709 73.6669 126.736 73.7967C126.814 74.0444 126.904 74.4007 127.004 74.8507C127.208 75.7567 127.409 76.9889 127.577 78.366C127.745 79.7431 127.888 80.9511 127.999 81.8903C128.053 82.3131 128.1 82.6725 128.135 82.9594C128.163 83.0889 128.173 83.2206 128.164 83.352V83.352Z" fill="#263238"/>
<path d="M141.94 81.1836C141.766 81.2156 141.588 81.2338 141.41 81.238C141.052 81.2652 140.544 81.3014 139.914 81.3618C138.653 81.4766 136.921 81.688 135.02 81.99C133.119 82.292 131.411 82.6332 130.183 82.896C129.571 83.0288 129.077 83.1497 128.751 83.2312C128.577 83.2833 128.397 83.3198 128.214 83.3399C128.38 83.2697 128.552 83.2121 128.73 83.1678C129.066 83.0681 129.553 82.9292 130.162 82.7812C131.382 82.4792 133.09 82.1198 134.998 81.8118C136.615 81.5511 138.246 81.3595 139.885 81.238C140.519 81.1927 141.031 81.1746 141.389 81.1685C141.572 81.158 141.757 81.163 141.94 81.1836Z" fill="#263238"/>
<path d="M122.185 96.2534C122.147 96.2097 122.116 96.162 122.092 96.1115L121.856 95.6917C121.652 95.3263 121.376 94.7857 121.047 94.1243C120.381 92.7955 119.533 90.9352 118.63 88.8695C117.728 86.8039 116.898 84.9435 116.268 83.5996C115.96 82.9473 115.706 82.4128 115.516 82.0141L115.315 81.5823C115.288 81.5325 115.268 81.4796 115.258 81.4252C115.296 81.469 115.328 81.5167 115.351 81.5672L115.587 81.987C115.788 82.3524 116.067 82.893 116.397 83.5543C117.062 84.8831 117.911 86.7435 118.813 88.8091C119.715 90.8748 120.546 92.7351 121.176 94.079C121.484 94.7314 121.738 95.2659 121.924 95.6645C122.006 95.8367 122.074 95.9665 122.128 96.0964C122.156 96.1462 122.175 96.1991 122.185 96.2534V96.2534Z" fill="#263238"/>
<path d="M140.472 91.2795C140.415 91.3073 140.353 91.3286 140.289 91.3429L139.76 91.4939L137.801 92.0285C136.147 92.4815 133.863 93.1277 131.357 93.8405C128.851 94.5532 126.557 95.1874 124.892 95.6102C124.061 95.8246 123.385 95.9877 122.916 96.0964L122.375 96.2142C122.312 96.231 122.247 96.2422 122.182 96.2474C122.239 96.2196 122.301 96.1983 122.364 96.184L122.894 96.033L124.853 95.4984C126.506 95.0454 128.791 94.3992 131.297 93.6864C133.803 92.9737 136.094 92.3395 137.758 91.9167C138.593 91.7023 139.266 91.5392 139.738 91.4305L140.279 91.3127C140.342 91.2959 140.406 91.2847 140.472 91.2795V91.2795Z" fill="#263238"/>
<path d="M133.011 18.0234L131.168 18.579L130.376 16.5466C128.923 12.7988 124.29 10.8086 120.034 12.074C115.777 13.3393 113.511 17.4496 114.965 21.1974L115.756 23.2298L113.905 23.7885C113.199 24.0195 112.626 24.4709 112.305 25.0491C111.983 25.6273 111.938 26.2877 112.179 26.8931L117.309 40.1177C117.416 40.4174 117.593 40.6959 117.829 40.9368C118.066 41.1777 118.358 41.3761 118.687 41.52C119.016 41.664 119.376 41.7506 119.746 41.7748C120.116 41.799 120.488 41.7603 120.839 41.6609L139.946 35.8957C140.661 35.6652 141.242 35.2097 141.567 34.6251C141.892 34.0405 141.936 33.3722 141.689 32.761L136.556 19.5364C136.446 19.2375 136.267 18.9603 136.028 18.7213C135.789 18.4822 135.495 18.2863 135.164 18.1451C134.833 18.0038 134.472 17.9203 134.102 17.8994C133.733 17.8785 133.361 17.9206 133.011 18.0234V18.0234ZM118.448 20.1374C118.056 19.1629 118.126 18.0983 118.644 17.1665C119.162 16.2348 120.087 15.5083 121.226 15.1393C121.788 14.977 122.383 14.9119 122.976 14.9479C123.569 14.9839 124.147 15.1203 124.676 15.3489C125.205 15.5775 125.674 15.8936 126.055 16.2784C126.436 16.6631 126.721 17.1087 126.893 17.5885L127.681 19.6209L119.235 22.1698L118.448 20.1374ZM129.188 31.8731L130.498 35.2494C130.522 35.3171 130.514 35.3901 130.476 35.4531C130.438 35.516 130.373 35.5643 130.294 35.5877L128.458 36.1403C128.384 36.1574 128.306 36.15 128.24 36.1196C128.173 36.0892 128.123 36.0382 128.1 35.9773L126.779 32.616C126.05 32.5825 125.351 32.3621 124.775 31.9843C124.2 31.6065 123.774 31.0893 123.557 30.502C123.245 29.7255 123.302 28.8776 123.715 28.1356C124.128 27.3937 124.865 26.8153 125.773 26.5216C126.22 26.3925 126.695 26.3408 127.167 26.3696C127.639 26.3984 128.099 26.507 128.52 26.6891C128.942 26.8711 129.315 27.1229 129.619 27.4293C129.922 27.7357 130.149 28.0905 130.287 28.4726C130.517 29.0692 130.536 29.7095 130.342 30.3151C130.147 30.9207 129.747 31.4653 129.191 31.8821L129.188 31.8731Z" fill="#FF7F48"/>
<path d="M131.085 18.5428C131.085 18.5851 127.666 19.6693 123.413 20.9588C119.16 22.2483 115.691 23.2842 115.673 23.254C115.655 23.2238 119.092 22.1306 123.349 20.838C127.605 19.5454 131.067 18.5035 131.085 18.5428Z" fill="#263238"/>
<path d="M135.145 19.0985C135.161 19.1247 135.174 19.152 135.184 19.18C135.213 19.2404 135.245 19.3189 135.288 19.4156C135.381 19.636 135.51 19.9411 135.671 20.3216L137.046 23.6979C137.619 25.1294 138.303 26.8267 139.061 28.7111C139.419 29.6564 139.842 30.6409 140.236 31.6768C140.447 32.2106 140.538 32.7728 140.504 33.3348C140.474 33.627 140.375 33.9113 140.214 34.1713C140.042 34.4304 139.812 34.6591 139.538 34.8448C138.985 35.1853 138.371 35.4494 137.719 35.6269L135.875 36.1856L132.385 37.2396L126.474 39.0154L122.483 40.1992L121.409 40.5012L121.122 40.5797C121.091 40.5912 121.059 40.5984 121.025 40.6009C121.025 40.6009 121.054 40.6009 121.115 40.5646L121.394 40.471L122.468 40.1298L126.438 38.8976L132.338 37.0856L135.822 36.0226L137.665 35.4608C138.298 35.2905 138.894 35.0345 139.43 34.7028C139.686 34.5305 139.9 34.3183 140.06 34.0777C140.212 33.8372 140.303 33.573 140.329 33.3015C140.362 32.7601 140.274 32.2183 140.071 31.704C139.684 30.6772 139.276 29.6836 138.908 28.7383C138.163 26.8508 137.476 25.1475 136.931 23.7161C136.387 22.2846 135.929 21.134 135.614 20.3246C135.464 19.929 135.349 19.6209 135.256 19.3975L135.17 19.1559C135.159 19.1376 135.151 19.1183 135.145 19.0985V19.0985Z" fill="#263238"/>
<path d="M125.064 14.9339C125.064 14.9339 124.874 14.8554 124.523 14.7346C124.023 14.5725 123.494 14.4826 122.959 14.4688C122.165 14.4459 121.375 14.5717 120.646 14.8373C119.759 15.1679 119.001 15.7028 118.459 16.3805C117.912 17.0562 117.619 17.8548 117.617 18.6727C117.625 19.343 117.745 20.0091 117.975 20.6508C118.161 21.2004 118.355 21.6383 118.484 21.9433C118.56 22.0982 118.622 22.2577 118.67 22.4205C118.568 22.2756 118.483 22.1229 118.416 21.9645C118.269 21.6625 118.058 21.2336 117.85 20.681C117.595 20.0325 117.456 19.3556 117.438 18.6727C117.429 17.8239 117.729 16.9931 118.297 16.2929C118.859 15.5905 119.648 15.0391 120.571 14.7044C121.323 14.4374 122.137 14.3196 122.951 14.3601C123.499 14.3836 124.036 14.4911 124.537 14.6772C124.671 14.7294 124.801 14.7899 124.924 14.8584C124.975 14.8773 125.022 14.9027 125.064 14.9339V14.9339Z" fill="#263238"/>
<path d="M125.228 26.7512C125.286 26.722 125.345 26.6967 125.407 26.6757C125.587 26.6075 125.772 26.5519 125.962 26.5096C126.264 26.4344 126.575 26.3898 126.889 26.3767C127.317 26.3573 127.744 26.4118 128.146 26.5367C129.063 26.8085 129.904 27.5968 130.319 28.6507C130.518 29.2164 130.518 29.8186 130.319 30.3842C130.098 30.9981 129.703 31.557 129.166 32.012L129.188 31.9305C129.664 33.0328 130.183 34.2287 130.72 35.4759L130.752 35.5514L130.663 35.5786L129.843 35.8081L128.053 36.3125L127.963 36.3366L127.935 36.2611C127.444 35.0109 126.907 33.8451 126.503 32.7006L126.582 32.7519C125.882 32.7029 125.214 32.4813 124.663 32.1147C124.164 31.7904 123.754 31.3781 123.463 30.9067C123.201 30.4886 123.07 30.0206 123.084 29.5477C123.101 29.0643 123.244 28.59 123.503 28.1588C123.762 27.7275 124.131 27.35 124.584 27.0532C124.77 26.9256 124.979 26.8237 125.203 26.7512C125.001 26.8524 124.805 26.9622 124.616 27.0803C124.119 27.4352 123.738 27.8916 123.51 28.4061C123.314 28.7941 123.222 29.2138 123.242 29.6352C123.261 30.0566 123.39 30.4691 123.621 30.8433C123.907 31.2968 124.306 31.6925 124.792 32.0029C125.318 32.3514 125.954 32.5614 126.621 32.6069H126.682L126.7 32.6522C127.094 33.7757 127.634 34.9505 128.132 36.2068L128.014 36.1585L129.804 35.6541L130.62 35.4216L130.563 35.5243C130.029 34.277 129.514 33.0781 129.041 31.9758V31.9305L129.084 31.8942C129.604 31.4581 129.993 30.9225 130.215 30.3329C130.405 29.7918 130.405 29.216 130.215 28.6749C129.825 27.6602 129.02 26.8901 128.146 26.6183C127.759 26.4925 127.347 26.434 126.932 26.4461C126.623 26.4521 126.316 26.4876 126.016 26.5518C125.483 26.6636 125.232 26.7663 125.228 26.7512Z" fill="#263238"/>
<path d="M114.163 113.951L78.402 113.812C76.3369 113.802 74.3607 113.101 72.9074 111.864C71.4542 110.626 70.6427 108.952 70.6513 107.21L71.0308 31.5862C71.035 30.7231 71.2408 29.8691 71.6365 29.0732C72.0322 28.2772 72.6099 27.5548 73.3367 26.9473C74.0635 26.3398 74.9251 25.8591 75.8722 25.5327C76.8194 25.2063 77.8335 25.0405 78.8567 25.0449L114.614 25.1838C116.679 25.1926 118.655 25.8924 120.109 27.1297C121.563 28.3669 122.376 30.0404 122.368 31.7825L121.989 107.403C121.984 108.267 121.779 109.121 121.383 109.917C120.987 110.713 120.41 111.436 119.683 112.044C118.956 112.652 118.095 113.133 117.148 113.461C116.2 113.788 115.186 113.954 114.163 113.951V113.951Z" fill="#455A64"/>
<path d="M114.56 27.784H107.629C107.403 27.7875 107.18 27.8286 106.973 27.9049C106.765 27.9812 106.578 28.0912 106.421 28.2286C106.264 28.366 106.141 28.5282 106.058 28.7058C105.975 28.8834 105.935 29.073 105.939 29.2638V30.3238C105.944 30.5144 105.903 30.7039 105.821 30.8813C105.738 31.0588 105.615 31.2207 105.458 31.3579C105.301 31.4951 105.113 31.6048 104.906 31.6808C104.699 31.7567 104.476 31.7974 104.25 31.8006L90.7387 31.7492C90.2816 31.739 89.8481 31.5761 89.5333 31.2964C89.2185 31.0166 89.0481 30.643 89.0597 30.2574V29.1973C89.0712 28.8123 88.9014 28.439 88.5873 28.1594C88.2733 27.8798 87.8407 27.7165 87.3842 27.7055H84.9463L78.8782 27.6813C77.4348 27.6741 76.0469 28.1496 75.0183 29.0037C73.9897 29.8578 73.4042 31.021 73.39 32.2385L73.032 106.053C73.0287 106.657 73.1665 107.256 73.4374 107.815C73.7084 108.374 74.1073 108.883 74.6112 109.312C75.1152 109.741 75.7144 110.082 76.3747 110.316C77.0349 110.549 77.7433 110.671 78.4593 110.674L114.145 110.813C114.861 110.816 115.571 110.699 116.235 110.471C116.898 110.242 117.501 109.905 118.01 109.48C118.519 109.054 118.924 108.549 119.201 107.991C119.478 107.434 119.622 106.836 119.626 106.232L119.984 32.4167C119.992 31.1957 119.426 30.0219 118.409 29.1532C117.392 28.2845 116.007 27.792 114.56 27.784V27.784Z" fill="white"/>
<path d="M109.759 100.965L83.2243 100.868C82.9486 100.868 82.7267 100.614 82.7302 100.306L82.7589 94.4505C82.7589 94.1485 82.9844 93.8888 83.2601 93.8888L109.795 93.9915C109.948 94.0137 110.084 94.0849 110.176 94.1901C110.269 94.2954 110.309 94.4265 110.289 94.5562L110.264 100.406C110.264 100.717 110.035 100.968 109.759 100.965Z" fill="#FF7F48"/>
<path d="M93.2145 96.6364C93.2038 96.5464 93.1606 96.4766 93.0849 96.4268C93.0091 96.3771 92.9162 96.3523 92.8061 96.3523C92.7256 96.3523 92.6552 96.3653 92.5948 96.3913C92.535 96.4174 92.4883 96.4532 92.4545 96.4988C92.4214 96.5443 92.4048 96.5961 92.4048 96.6541C92.4048 96.7027 92.4164 96.7444 92.4395 96.7793C92.4631 96.8136 92.4933 96.8423 92.53 96.8654C92.5667 96.8879 92.6052 96.9065 92.6454 96.9213C92.6857 96.9355 92.7227 96.9471 92.7564 96.956L92.9411 97.0057C92.9884 97.0181 93.0411 97.0353 93.0991 97.0572C93.1577 97.0791 93.2136 97.109 93.2669 97.1468C93.3207 97.1841 93.3651 97.2321 93.4 97.2907C93.435 97.3493 93.4524 97.4212 93.4524 97.5064C93.4524 97.6046 93.4267 97.6934 93.3752 97.7727C93.3243 97.852 93.2497 97.9151 93.1515 97.9618C93.0538 98.0086 92.9351 98.032 92.7955 98.032C92.6652 98.032 92.5525 98.0109 92.4572 97.9689C92.3625 97.9269 92.2879 97.8683 92.2335 97.7931C92.1796 97.718 92.1491 97.6307 92.142 97.5312H92.3693C92.3752 97.5999 92.3983 97.6567 92.4386 97.7017C92.4794 97.7461 92.5309 97.7792 92.593 97.8011C92.6558 97.8224 92.7232 97.8331 92.7955 97.8331C92.8795 97.8331 92.955 97.8195 93.0218 97.7923C93.0887 97.7644 93.1417 97.726 93.1808 97.6768C93.2198 97.6271 93.2393 97.5691 93.2393 97.5028C93.2393 97.4425 93.2225 97.3933 93.1887 97.3555C93.155 97.3176 93.1106 97.2868 93.0556 97.2631C93.0005 97.2395 92.9411 97.2187 92.8771 97.201L92.6534 97.1371C92.5114 97.0962 92.3989 97.0379 92.3161 96.9622C92.2332 96.8864 92.1918 96.7873 92.1918 96.6648C92.1918 96.563 92.2193 96.4742 92.2743 96.3984C92.33 96.3221 92.4045 96.2629 92.498 96.2209C92.5922 96.1783 92.6972 96.157 92.8132 96.157C92.9304 96.157 93.0346 96.178 93.1257 96.22C93.2169 96.2614 93.2891 96.3182 93.3423 96.3904C93.3962 96.4627 93.4246 96.5446 93.4276 96.6364H93.2145ZM94.0346 96.1818V98H93.8144V96.1818H94.0346ZM95.9178 96.1818V98H95.7047L94.714 96.5724H94.6962V98H94.476V96.1818H94.6891L95.6834 97.6129H95.7012V96.1818H95.9178ZM97.6013 96.75C97.5817 96.6902 97.556 96.6367 97.524 96.5893C97.4926 96.5414 97.4551 96.5005 97.4113 96.4668C97.3681 96.4331 97.3189 96.4073 97.2639 96.3896C97.2089 96.3718 97.1485 96.3629 97.0828 96.3629C96.9751 96.3629 96.8771 96.3907 96.7889 96.4464C96.7007 96.502 96.6306 96.584 96.5785 96.6923C96.5264 96.8006 96.5004 96.9335 96.5004 97.0909C96.5004 97.2483 96.5267 97.3812 96.5794 97.4895C96.6321 97.5978 96.7034 97.6798 96.7934 97.7354C96.8833 97.7911 96.9845 97.8189 97.097 97.8189C97.2012 97.8189 97.2929 97.7967 97.3722 97.7523C97.4521 97.7073 97.5142 97.644 97.5586 97.5623C97.6036 97.4801 97.6261 97.3833 97.6261 97.272L97.6936 97.2862H97.1467V97.0909H97.8392V97.2862C97.8392 97.436 97.8072 97.5662 97.7433 97.6768C97.68 97.7875 97.5924 97.8733 97.4805 97.9343C97.3692 97.9947 97.2414 98.0249 97.097 98.0249C96.936 98.0249 96.7946 97.987 96.6726 97.9112C96.5513 97.8355 96.4566 97.7277 96.3885 97.5881C96.3211 97.4484 96.2873 97.2827 96.2873 97.0909C96.2873 96.9471 96.3066 96.8178 96.345 96.7029C96.3841 96.5875 96.4391 96.4893 96.5102 96.4082C96.5812 96.3271 96.6652 96.265 96.7623 96.2218C96.8594 96.1786 96.9662 96.157 97.0828 96.157C97.1787 96.157 97.268 96.1715 97.3509 96.2005C97.4343 96.2289 97.5086 96.2694 97.5737 96.3221C97.6394 96.3742 97.6942 96.4366 97.738 96.5094C97.7818 96.5816 97.812 96.6618 97.8285 96.75H97.6013ZM100.113 96.1818H100.333V97.3857C100.333 97.5099 100.303 97.6209 100.245 97.7186C100.187 97.8156 100.105 97.8923 99.9989 97.9485C99.893 98.0041 99.7687 98.032 99.6261 98.032C99.4834 98.032 99.3591 98.0041 99.2532 97.9485C99.1473 97.8923 99.065 97.8156 99.0064 97.7186C98.9484 97.6209 98.9194 97.5099 98.9194 97.3857V96.1818H99.1396V97.3679C99.1396 97.4567 99.1591 97.5357 99.1982 97.6049C99.2372 97.6736 99.2929 97.7277 99.3651 97.7674C99.4379 97.8065 99.5249 97.826 99.6261 97.826C99.7273 97.826 99.8143 97.8065 99.8871 97.7674C99.9599 97.7277 100.016 97.6736 100.054 97.6049C100.093 97.5357 100.113 97.4567 100.113 97.3679V96.1818ZM100.772 98V96.1818H101.387C101.529 96.1818 101.646 96.2076 101.737 96.2591C101.828 96.31 101.895 96.3789 101.939 96.4659C101.983 96.5529 102.005 96.65 102.005 96.7571C102.005 96.8642 101.983 96.9616 101.939 97.0492C101.896 97.1368 101.829 97.2066 101.738 97.2587C101.648 97.3102 101.532 97.3359 101.39 97.3359H100.95V97.1406H101.383C101.481 97.1406 101.559 97.1238 101.618 97.09C101.678 97.0563 101.721 97.0107 101.747 96.9533C101.774 96.8953 101.788 96.8299 101.788 96.7571C101.788 96.6843 101.774 96.6192 101.747 96.5618C101.721 96.5044 101.677 96.4594 101.618 96.4268C101.558 96.3937 101.479 96.3771 101.38 96.3771H100.993V98H100.772Z" fill="#E8E8E3"/>
<path d="M88.517 49.4828L79.3093 49.4475L79.3016 50.8729L88.5093 50.9082L88.517 49.4828Z" fill="#FF7F48"/>
<path opacity="0.1" d="M88.517 49.4828L79.3093 49.4475L79.3016 50.8729L88.5093 50.9082L88.517 49.4828Z" fill="black"/>
<path d="M115.509 58.2347C115.581 58.2285 115.652 58.2143 115.72 58.1924C115.819 58.1597 115.905 58.1041 115.968 58.032C116.032 57.9599 116.07 57.8742 116.078 57.7847C116.078 57.3045 116.078 56.6039 116.078 55.7039C116.078 55.2539 116.078 54.7496 116.078 54.1939C116.078 54.058 116.078 53.9161 116.078 53.7741C116.101 53.6364 116.066 53.4961 115.978 53.3785C115.928 53.3221 115.864 53.2761 115.79 53.2441C115.716 53.2122 115.635 53.1951 115.552 53.1943H114.993H109.82L79.877 53.1007C79.8003 53.0996 79.7245 53.1141 79.6559 53.143C79.5874 53.1719 79.5281 53.2144 79.4832 53.2668C79.3967 53.3849 79.3637 53.5254 79.3901 53.6624C79.3901 53.9644 79.3901 54.2664 79.3901 54.5684C79.3901 55.1724 79.3901 55.7764 79.3901 56.3804C79.3901 56.6824 79.3901 56.9844 79.3901 57.2864C79.3752 57.427 79.3752 57.5685 79.3901 57.7092C79.4089 57.7695 79.4438 57.8253 79.4923 57.8725C79.5407 57.9196 79.6012 57.9567 79.6693 57.981C79.7399 58.0047 79.8154 58.016 79.8913 58.0142H81.7135L89.6647 58.0504L103.125 58.1199L112.201 58.1803L114.667 58.2045H115.308C115.455 58.2045 115.527 58.2045 115.527 58.2045H115.308H114.667H112.201H103.125L89.6647 58.1682L81.7135 58.141H79.8913C79.791 58.1445 79.691 58.1301 79.5977 58.0988C79.5035 58.0648 79.4196 58.0132 79.3526 57.9477C79.2856 57.8823 79.2372 57.8049 79.2111 57.7213C79.1904 57.642 79.1831 57.5606 79.1896 57.4797V57.2562C79.1896 56.9542 79.1896 56.6522 79.1896 56.3502C79.1896 55.7462 79.1896 55.1422 79.1896 54.5382C79.1896 54.2362 79.1896 53.9342 79.1896 53.6322C79.1828 53.5517 79.1828 53.471 79.1896 53.3906C79.203 53.3017 79.2437 53.2174 79.3077 53.146C79.3695 53.0731 79.4512 53.0138 79.546 52.9733C79.6407 52.9329 79.7457 52.9123 79.8519 52.9134L109.795 53.0523L114.968 53.0825H115.527C115.625 53.0826 115.722 53.1027 115.809 53.141C115.896 53.1794 115.971 53.235 116.028 53.303C116.129 53.4343 116.169 53.5921 116.142 53.7469C116.142 53.8889 116.142 54.0308 116.142 54.1667C116.142 54.7164 116.142 55.2207 116.142 55.6767C116.142 56.5827 116.117 57.2773 116.11 57.7605C116.101 57.8534 116.061 57.9423 115.995 58.0167C115.928 58.091 115.838 58.1478 115.734 58.1803C115.666 58.2157 115.588 58.2345 115.509 58.2347V58.2347Z" fill="#E0E0E0"/>
<path d="M98.9154 54.6167H82.0751V55.9485H98.9154V54.6167Z" fill="#FF7F48"/>
<path opacity="0.2" d="M98.9154 54.6167H82.0751V55.9485H98.9154V54.6167Z" fill="white"/>
<path d="M88.4542 62.4865L79.2465 62.4512L79.2389 63.8767L88.4465 63.9119L88.4542 62.4865Z" fill="#FF7F48"/>
<path opacity="0.1" d="M88.4542 62.4865L79.2465 62.4512L79.2389 63.8767L88.4465 63.9119L88.4542 62.4865Z" fill="black"/>
<path d="M115.276 71.2388C115.348 71.2313 115.42 71.2202 115.491 71.2055C115.591 71.1787 115.683 71.1341 115.761 71.0747C115.838 71.0153 115.9 70.9425 115.942 70.8613C115.998 70.7393 116.02 70.6081 116.006 70.4777C116.006 70.3328 116.006 70.1757 116.006 70.0006C116.006 69.6502 116.006 69.2516 116.006 68.7926V66.8749C116.023 66.736 115.987 66.5962 115.903 66.4762C115.814 66.3531 115.675 66.2618 115.512 66.2195C115.334 66.1927 115.152 66.1846 114.972 66.1954H109.82L79.9808 66.1017C79.8203 66.1021 79.6654 66.1515 79.5449 66.241C79.4244 66.3304 79.3465 66.4537 79.3257 66.588C79.3257 66.8749 79.3257 67.192 79.3257 67.494C79.3257 68.098 79.3257 68.702 79.3257 69.306C79.3257 69.608 79.3257 69.91 79.3257 70.212C79.3123 70.3531 79.3195 70.4951 79.3471 70.6348C79.3918 70.7572 79.4838 70.8635 79.6085 70.9368C79.7407 71.0076 79.8961 71.0414 80.0524 71.0334H80.55H81.5846L89.5072 71.0666L102.921 71.1361L111.965 71.1965L114.424 71.2206H115.065H115.28H115.065H114.424H111.965H102.921L89.5 71.2086L81.5775 71.1844H80.0202C79.8265 71.1941 79.6344 71.1506 79.4724 71.0606C79.3095 70.9654 79.1906 70.8256 79.1359 70.665C79.1038 70.5115 79.0942 70.3553 79.1073 70.1999C79.1073 69.8979 79.1073 69.5959 79.1073 69.2939C79.1073 68.6899 79.1073 68.0859 79.1073 67.4819C79.1073 67.1799 79.1073 66.8779 79.1073 66.5759C79.1334 66.4032 79.2332 66.2445 79.3881 66.1294C79.5429 66.0143 79.7422 65.9508 79.9486 65.9507L109.788 66.0897L114.939 66.1229C115.131 66.113 115.324 66.1241 115.512 66.1561C115.698 66.2074 115.855 66.315 115.953 66.4581C116.045 66.5911 116.085 66.7455 116.067 66.899C116.067 67.041 116.067 67.1799 116.067 67.3188C116.067 67.8654 116.067 68.3667 116.067 68.8288C116.067 69.2909 116.067 69.6804 116.067 70.0368C116.067 70.2089 116.067 70.369 116.067 70.517C116.08 70.652 116.054 70.7877 115.992 70.9126C115.946 70.9959 115.878 71.0698 115.795 71.1292C115.712 71.1887 115.614 71.2322 115.509 71.2569C115.43 71.2623 115.352 71.2562 115.276 71.2388V71.2388Z" fill="#E0E0E0"/>
<path d="M88.3848 76.0549L79.1771 76.0197L79.1695 77.4451L88.3771 77.4804L88.3848 76.0549Z" fill="#FF7F48"/>
<path opacity="0.1" d="M88.3848 76.0549L79.1771 76.0197L79.1695 77.4451L88.3771 77.4804L88.3848 76.0549Z" fill="black"/>
<path d="M115.204 84.8016C115.277 84.7944 115.349 84.7833 115.419 84.7684C115.519 84.7417 115.61 84.6974 115.688 84.6386C115.766 84.5798 115.828 84.5077 115.87 84.4271C115.926 84.3051 115.948 84.1739 115.935 84.0436C115.935 83.8956 115.935 83.7416 115.935 83.5634C115.935 83.2161 115.935 82.8144 115.935 82.3554V80.4377C115.952 80.2988 115.915 80.1591 115.831 80.039C115.74 79.9182 115.602 79.8283 115.441 79.7854C115.263 79.7574 115.081 79.7483 114.9 79.7582H109.748L79.9092 79.6646C79.7487 79.6649 79.5938 79.7144 79.4733 79.8038C79.3528 79.8932 79.2749 80.0165 79.254 80.1508C79.254 80.4528 79.254 80.7548 79.254 81.0568C79.254 81.6608 79.254 82.2648 79.254 82.8688C79.254 83.1708 79.254 83.4728 79.254 83.7748C79.2407 83.9149 79.2479 84.0559 79.2755 84.1946C79.3184 84.3178 79.4108 84.4246 79.5369 84.4966C79.6683 84.569 79.8242 84.6029 79.9808 84.5932H81.5381L89.4606 84.6294L102.875 84.6989L111.918 84.7593L114.377 84.7835H115.018C115.161 84.7835 115.233 84.7835 115.233 84.7835C115.233 84.7835 115.161 84.7835 115.018 84.7835H114.377H111.918H102.875L89.4606 84.7502L81.5381 84.7231H79.9808C79.787 84.7341 79.5943 84.6905 79.433 84.5992C79.2701 84.5041 79.1512 84.3643 79.0965 84.2036C79.0644 84.0502 79.0548 83.894 79.0679 83.7385C79.0679 83.4365 79.0679 83.1345 79.0679 82.8325C79.0679 82.2285 79.0679 81.6245 79.0679 81.0205C79.0679 80.7185 79.0679 80.4165 79.0679 80.0994C79.0932 79.927 79.1923 79.7683 79.3466 79.6532C79.5008 79.5381 79.6996 79.4745 79.9056 79.4743L109.745 79.6132L114.897 79.6464C115.088 79.6365 115.281 79.6477 115.469 79.6797C115.655 79.7309 115.812 79.8385 115.91 79.9817C116.002 80.1147 116.042 80.2691 116.024 80.4226C116.024 80.5645 116.024 80.7065 116.024 80.8424C116.024 81.389 116.024 81.8903 116.024 82.3524C116.024 82.8144 116.024 83.204 116.024 83.5604C116.024 83.7325 116.024 83.8926 116.024 84.0405C116.038 84.1756 116.012 84.3115 115.949 84.4362C115.903 84.5195 115.835 84.5934 115.752 84.6528C115.669 84.7122 115.571 84.7558 115.466 84.7804C115.382 84.8047 115.292 84.8119 115.204 84.8016V84.8016Z" fill="#E0E0E0"/>
<path d="M98.5559 67.9974L81.7158 67.9329L81.7086 69.2647L98.5487 69.3292L98.5559 67.9974Z" fill="#FF7F48"/>
<path opacity="0.2" d="M98.5559 67.9974L81.7158 67.9329L81.7086 69.2647L98.5487 69.3292L98.5559 67.9974Z" fill="white"/>
<path d="M83.2386 82.3373C83.228 82.4588 83.1754 82.5749 83.0873 82.6714C82.9992 82.7679 82.8794 82.8405 82.7429 82.8801C82.6063 82.9197 82.459 82.9246 82.3192 82.8942C82.1793 82.8638 82.0531 82.7995 81.9563 82.7092C81.8594 82.6189 81.7961 82.5066 81.7741 82.3862C81.7522 82.2658 81.7727 82.1426 81.833 82.0319C81.8933 81.9213 81.9908 81.828 82.1134 81.7636C82.236 81.6992 82.3782 81.6666 82.5226 81.6698C82.722 81.6792 82.9091 81.7546 83.0431 81.8795C83.1771 82.0044 83.2474 82.1689 83.2386 82.3373V82.3373Z" fill="#FF7F48"/>
<path d="M85.519 82.3463C85.5261 82.4315 85.5123 82.5169 85.4785 82.5974C85.4447 82.6778 85.3917 82.7515 85.3227 82.814C85.2537 82.8764 85.1702 82.9262 85.0774 82.9602C84.9846 82.9942 84.8845 83.0118 84.7833 83.0118C84.6822 83.0118 84.5821 82.9942 84.4893 82.9602C84.3965 82.9262 84.313 82.8764 84.244 82.814C84.175 82.7515 84.122 82.6778 84.0882 82.5974C84.0544 82.5169 84.0406 82.4315 84.0477 82.3463C84.0406 82.2612 84.0544 82.1757 84.0882 82.0953C84.122 82.0148 84.175 81.9411 84.244 81.8787C84.313 81.8163 84.3965 81.7665 84.4893 81.7325C84.5821 81.6985 84.6822 81.6809 84.7833 81.6809C84.8845 81.6809 84.9846 81.6985 85.0774 81.7325C85.1702 81.7665 85.2537 81.8163 85.3227 81.8787C85.3917 81.9411 85.4447 82.0148 85.4785 82.0953C85.5123 82.1757 85.5261 82.2612 85.519 82.3463V82.3463Z" fill="#FF7F48"/>
<path d="M87.8031 82.3554C87.7925 82.4769 87.7399 82.5931 87.6518 82.6895C87.5637 82.786 87.4439 82.8586 87.3074 82.8982C87.1708 82.9378 87.0235 82.9427 86.8837 82.9123C86.7438 82.882 86.6177 82.8176 86.5208 82.7273C86.4239 82.637 86.3606 82.5247 86.3387 82.4043C86.3167 82.2839 86.3372 82.1607 86.3975 82.05C86.4578 81.9394 86.5553 81.8461 86.6779 81.7817C86.8005 81.7173 86.9427 81.6847 87.0871 81.688C87.2862 81.6981 87.4727 81.7737 87.6065 81.8984C87.7404 82.0232 87.8109 82.1872 87.8031 82.3554Z" fill="#FF7F48"/>
<path d="M90.0836 82.3645C90.073 82.4859 90.0204 82.6021 89.9323 82.6986C89.8441 82.7951 89.7244 82.8676 89.5878 82.9072C89.4513 82.9469 89.304 82.9518 89.1641 82.9214C89.0243 82.891 88.8981 82.8267 88.8012 82.7364C88.7044 82.6461 88.641 82.5337 88.6191 82.4134C88.5972 82.293 88.6177 82.1698 88.678 82.0591C88.7383 81.9484 88.8358 81.8551 88.9583 81.7908C89.0809 81.7264 89.2232 81.6938 89.3676 81.697C89.5667 81.7072 89.7531 81.7827 89.887 81.9075C90.0208 82.0323 90.0914 82.1963 90.0836 82.3645Z" fill="#FF7F48"/>
<path d="M92.364 82.3705C92.3541 82.4922 92.3021 82.6087 92.2144 82.7056C92.1266 82.8025 92.0071 82.8755 91.8705 82.9156C91.734 82.9556 91.5865 82.961 91.4464 82.9309C91.3063 82.9008 91.1798 82.8367 91.0826 82.7465C90.9853 82.6562 90.9217 82.5439 90.8995 82.4234C90.8773 82.3029 90.8976 82.1796 90.9579 82.0687C91.0181 81.9579 91.1157 81.8644 91.2384 81.7999C91.3611 81.7355 91.5035 81.7028 91.648 81.7061C91.8465 81.7162 92.0324 81.7914 92.1662 81.9155C92.2999 82.0396 92.3709 82.2029 92.364 82.3705Z" fill="#FF7F48"/>
<path d="M94.6481 82.3796C94.6383 82.5006 94.5868 82.6166 94.4999 82.7132C94.413 82.8099 94.2945 82.883 94.159 82.9236C94.0234 82.9641 93.8768 82.9704 93.7371 82.9416C93.5974 82.9128 93.4708 82.8501 93.3727 82.7614C93.2747 82.6726 93.2096 82.5616 93.1853 82.4421C93.1611 82.3225 93.1789 82.1996 93.2364 82.0884C93.2939 81.9772 93.3887 81.8826 93.5092 81.8163C93.6296 81.75 93.7704 81.7148 93.9142 81.7152C94.1158 81.7214 94.3063 81.7949 94.4438 81.9194C94.5814 82.044 94.6548 82.2094 94.6481 82.3796V82.3796Z" fill="#FF7F48"/>
<path d="M96.9285 82.3886C96.9356 82.4738 96.9218 82.5592 96.888 82.6397C96.8542 82.7201 96.8012 82.7938 96.7322 82.8562C96.6632 82.9187 96.5797 82.9684 96.4869 83.0025C96.3941 83.0365 96.294 83.054 96.1928 83.054C96.0917 83.054 95.9916 83.0365 95.8988 83.0025C95.806 82.9684 95.7225 82.9187 95.6535 82.8562C95.5845 82.7938 95.5315 82.7201 95.4977 82.6397C95.4639 82.5592 95.4501 82.4738 95.4571 82.3886C95.4501 82.3035 95.4639 82.218 95.4977 82.1376C95.5315 82.0571 95.5845 81.9834 95.6535 81.921C95.7225 81.8586 95.806 81.8088 95.8988 81.7748C95.9916 81.7407 96.0917 81.7232 96.1928 81.7232C96.294 81.7232 96.3941 81.7407 96.4869 81.7748C96.5797 81.8088 96.6632 81.8586 96.7322 81.921C96.8012 81.9834 96.8542 82.0571 96.888 82.1376C96.9218 82.218 96.9356 82.3035 96.9285 82.3886Z" fill="#FF7F48"/>
<path d="M99.209 82.3977C99.1992 82.5187 99.1477 82.6347 99.0608 82.7313C98.9739 82.828 98.8554 82.9011 98.7199 82.9417C98.5843 82.9823 98.4377 82.9885 98.298 82.9597C98.1583 82.9309 98.0317 82.8683 97.9336 82.7795C97.8356 82.6908 97.7705 82.5798 97.7463 82.4602C97.722 82.3406 97.7398 82.2177 97.7973 82.1065C97.8548 81.9953 97.9497 81.9007 98.0701 81.8344C98.1905 81.7681 98.3313 81.733 98.4751 81.7333C98.6767 81.7396 98.8672 81.813 99.0047 81.9376C99.1423 82.0621 99.2157 82.2275 99.209 82.3977V82.3977Z" fill="#FF7F48"/>
<path d="M101.489 82.4067C101.48 82.5284 101.428 82.6449 101.34 82.7418C101.252 82.8387 101.132 82.9118 100.996 82.9518C100.859 82.9919 100.712 82.9972 100.572 82.9671C100.432 82.9371 100.305 82.8729 100.208 82.7827C100.111 82.6925 100.047 82.5801 100.025 82.4596C100.003 82.3391 100.023 82.2158 100.083 82.105C100.144 81.9941 100.241 81.9006 100.364 81.8362C100.486 81.7717 100.629 81.7391 100.773 81.7423C100.972 81.7525 101.158 81.8276 101.292 81.9517C101.425 82.0758 101.496 82.2391 101.489 82.4067V82.4067Z" fill="#FF7F48"/>
<g opacity="0.2">
<path d="M83.2386 82.3373C83.228 82.4588 83.1754 82.5749 83.0873 82.6714C82.9992 82.7679 82.8794 82.8405 82.7429 82.8801C82.6063 82.9197 82.459 82.9246 82.3192 82.8942C82.1793 82.8638 82.0531 82.7995 81.9563 82.7092C81.8594 82.6189 81.7961 82.5066 81.7741 82.3862C81.7522 82.2658 81.7727 82.1426 81.833 82.0319C81.8933 81.9213 81.9908 81.828 82.1134 81.7636C82.236 81.6992 82.3782 81.6666 82.5226 81.6698C82.722 81.6792 82.9091 81.7546 83.0431 81.8795C83.1771 82.0044 83.2474 82.1689 83.2386 82.3373V82.3373Z" fill="white"/>
<path d="M85.519 82.3466C85.5261 82.4317 85.5123 82.5172 85.4785 82.5976C85.4447 82.6781 85.3917 82.7518 85.3227 82.8142C85.2537 82.8766 85.1702 82.9264 85.0774 82.9604C84.9846 82.9944 84.8845 83.012 84.7833 83.012C84.6822 83.012 84.5821 82.9944 84.4893 82.9604C84.3965 82.9264 84.313 82.8766 84.244 82.8142C84.175 82.7518 84.122 82.6781 84.0882 82.5976C84.0544 82.5172 84.0406 82.4317 84.0477 82.3466C84.0406 82.2614 84.0544 82.176 84.0882 82.0955C84.122 82.0151 84.175 81.9413 84.244 81.8789C84.313 81.8165 84.3965 81.7667 84.4893 81.7327C84.5821 81.6987 84.6822 81.6811 84.7833 81.6811C84.8845 81.6811 84.9846 81.6987 85.0774 81.7327C85.1702 81.7667 85.2537 81.8165 85.3227 81.8789C85.3917 81.9413 85.4447 82.0151 85.4785 82.0955C85.5123 82.176 85.5261 82.2614 85.519 82.3466V82.3466Z" fill="white"/>
<path d="M87.8031 82.3556C87.7925 82.4771 87.7399 82.5933 87.6518 82.6898C87.5637 82.7863 87.4439 82.8588 87.3074 82.8984C87.1708 82.938 87.0235 82.9429 86.8837 82.9126C86.7438 82.8822 86.6177 82.8179 86.5208 82.7275C86.4239 82.6372 86.3606 82.5249 86.3387 82.4045C86.3167 82.2841 86.3372 82.1609 86.3975 82.0503C86.4578 81.9396 86.5553 81.8463 86.6779 81.7819C86.8005 81.7176 86.9427 81.685 87.0871 81.6882C87.2862 81.6983 87.4727 81.7739 87.6065 81.8987C87.7404 82.0234 87.8109 82.1875 87.8031 82.3556Z" fill="white"/>
<path d="M90.0836 82.3645C90.073 82.4859 90.0204 82.6021 89.9323 82.6986C89.8441 82.7951 89.7244 82.8676 89.5878 82.9072C89.4513 82.9469 89.304 82.9518 89.1641 82.9214C89.0243 82.891 88.8981 82.8267 88.8012 82.7364C88.7044 82.6461 88.641 82.5337 88.6191 82.4134C88.5972 82.293 88.6177 82.1698 88.678 82.0591C88.7383 81.9484 88.8358 81.8551 88.9583 81.7908C89.0809 81.7264 89.2232 81.6938 89.3676 81.697C89.5667 81.7072 89.7531 81.7827 89.887 81.9075C90.0208 82.0323 90.0914 82.1963 90.0836 82.3645Z" fill="white"/>
<path d="M92.364 82.3705C92.3541 82.4922 92.3021 82.6087 92.2143 82.7056C92.1266 82.8025 92.007 82.8755 91.8705 82.9156C91.734 82.9556 91.5865 82.961 91.4464 82.9309C91.3063 82.9008 91.1798 82.8367 91.0825 82.7465C90.9853 82.6562 90.9216 82.5439 90.8995 82.4234C90.8773 82.3029 90.8976 82.1796 90.9579 82.0687C91.0181 81.9579 91.1156 81.8644 91.2383 81.7999C91.361 81.7355 91.5035 81.7028 91.648 81.7061C91.8465 81.7162 92.0324 81.7914 92.1661 81.9155C92.2999 82.0396 92.3709 82.2029 92.364 82.3705Z" fill="white"/>
<path d="M94.648 82.3796C94.6383 82.5006 94.5868 82.6166 94.4999 82.7132C94.413 82.8099 94.2945 82.883 94.1589 82.9236C94.0234 82.9641 93.8768 82.9704 93.7371 82.9416C93.5974 82.9128 93.4707 82.8501 93.3727 82.7614C93.2747 82.6726 93.2095 82.5616 93.1853 82.4421C93.1611 82.3225 93.1788 82.1996 93.2364 82.0884C93.2939 81.9772 93.3887 81.8826 93.5091 81.8163C93.6296 81.75 93.7703 81.7148 93.9141 81.7152C94.1158 81.7214 94.3062 81.7949 94.4438 81.9194C94.5814 82.044 94.6548 82.2094 94.648 82.3796V82.3796Z" fill="white"/>
<path d="M96.9285 82.3886C96.9355 82.4738 96.9217 82.5592 96.888 82.6397C96.8542 82.7201 96.8011 82.7938 96.7321 82.8562C96.6631 82.9187 96.5796 82.9684 96.4868 83.0025C96.3941 83.0365 96.294 83.054 96.1928 83.054C96.0916 83.054 95.9915 83.0365 95.8987 83.0025C95.806 82.9684 95.7225 82.9187 95.6535 82.8562C95.5845 82.7938 95.5314 82.7201 95.4976 82.6397C95.4639 82.5592 95.4501 82.4738 95.4571 82.3886C95.4501 82.3035 95.4639 82.218 95.4976 82.1376C95.5314 82.0571 95.5845 81.9834 95.6535 81.921C95.7225 81.8586 95.806 81.8088 95.8987 81.7748C95.9915 81.7407 96.0916 81.7232 96.1928 81.7232C96.294 81.7232 96.3941 81.7407 96.4868 81.7748C96.5796 81.8088 96.6631 81.8586 96.7321 81.921C96.8011 81.9834 96.8542 82.0571 96.888 82.1376C96.9217 82.218 96.9355 82.3035 96.9285 82.3886Z" fill="white"/>
<path d="M99.2089 82.3977C99.1992 82.5187 99.1477 82.6347 99.0608 82.7313C98.9739 82.828 98.8554 82.9011 98.7198 82.9417C98.5843 82.9823 98.4377 82.9885 98.298 82.9597C98.1583 82.9309 98.0317 82.8683 97.9336 82.7795C97.8356 82.6908 97.7705 82.5798 97.7462 82.4602C97.722 82.3406 97.7397 82.2177 97.7973 82.1065C97.8548 81.9953 97.9496 81.9007 98.07 81.8344C98.1905 81.7681 98.3312 81.733 98.475 81.7333C98.6767 81.7396 98.8672 81.813 99.0047 81.9376C99.1423 82.0621 99.2157 82.2275 99.2089 82.3977V82.3977Z" fill="white"/>
<path d="M101.489 82.4067C101.48 82.5284 101.427 82.6449 101.34 82.7418C101.252 82.8388 101.132 82.9118 100.996 82.9518C100.859 82.9919 100.712 82.9972 100.572 82.9672C100.432 82.9371 100.305 82.873 100.208 82.7827C100.111 82.6925 100.047 82.5801 100.025 82.4596C100.003 82.3391 100.023 82.2158 100.083 82.105C100.144 81.9941 100.241 81.9007 100.364 81.8362C100.486 81.7717 100.629 81.7391 100.773 81.7423C100.972 81.7525 101.158 81.8276 101.292 81.9517C101.425 82.0758 101.496 82.2391 101.489 82.4067V82.4067Z" fill="white"/>
</g>
<path d="M98.2495 38.81C98.4982 38.7176 98.7092 38.5656 98.8563 38.3728C99.0033 38.18 99.0799 37.955 99.0765 37.7258C99.0858 37.5768 99.059 37.4278 98.9978 37.2878C98.9366 37.1478 98.8422 37.0198 98.7205 36.9116C98.5987 36.8033 98.4521 36.7171 98.2896 36.6582C98.1271 36.5993 97.9521 36.569 97.7752 36.569C97.5983 36.569 97.4233 36.5993 97.2608 36.6582C97.0983 36.7171 96.9517 36.8033 96.8299 36.9116C96.7082 37.0198 96.6138 37.1478 96.5526 37.2878C96.4914 37.4278 96.4646 37.5768 96.4739 37.7258C96.4684 37.9573 96.5444 38.185 96.6922 38.3801C96.84 38.5752 97.0531 38.729 97.3044 38.8221C95.2996 39.0758 95.3891 40.9119 95.3891 40.9119L100.129 40.9301C100.129 40.9301 100.24 39.0607 98.2495 38.81Z" fill="#FF7F48"/>
<path opacity="0.1" d="M98.2495 38.81C98.4982 38.7176 98.7092 38.5656 98.8563 38.3728C99.0033 38.18 99.0799 37.955 99.0765 37.7258C99.0858 37.5768 99.059 37.4278 98.9978 37.2878C98.9366 37.1478 98.8422 37.0198 98.7205 36.9116C98.5987 36.8033 98.4521 36.7171 98.2896 36.6582C98.1271 36.5993 97.9521 36.569 97.7752 36.569C97.5983 36.569 97.4233 36.5993 97.2608 36.6582C97.0983 36.7171 96.9517 36.8033 96.8299 36.9116C96.7082 37.0198 96.6138 37.1478 96.5526 37.2878C96.4914 37.4278 96.4646 37.5768 96.4739 37.7258C96.4684 37.9573 96.5444 38.185 96.6922 38.3801C96.84 38.5752 97.0531 38.729 97.3044 38.8221C95.2996 39.0758 95.3891 40.9119 95.3891 40.9119L100.129 40.9301C100.129 40.9301 100.24 39.0607 98.2495 38.81Z" fill="black"/>
<path d="M105.952 42.1143L89.0579 42.0497L89.0487 43.7529L105.943 43.8176L105.952 42.1143Z" fill="#FF7F48"/>
<path opacity="0.2" d="M105.952 42.1143L89.0579 42.0497L89.0487 43.7529L105.943 43.8176L105.952 42.1143Z" fill="white"/>
<path d="M43.8443 50.9414H43.676L43.1891 50.9716C42.9256 50.9849 42.6636 51.0142 42.4051 51.0592C42.2377 51.079 42.0716 51.1062 41.9075 51.1407L41.3526 51.2705C40.4081 51.515 39.517 51.8873 38.7141 52.3728C37.6533 53.0224 36.7675 53.854 36.115 54.813C35.7315 55.3658 35.4263 55.9547 35.2057 56.5676C34.9739 57.2338 34.8404 57.9215 34.8083 58.6152C34.787 58.9796 34.7942 59.3448 34.8298 59.7084C34.8298 59.8926 34.8907 60.0769 34.9193 60.2641C34.9434 60.4529 34.9853 60.6397 35.0446 60.8228C35.3665 62.0347 36.0197 63.1663 36.9521 64.1274C37.8844 65.0885 39.0701 65.8525 40.4146 66.3585C41.3877 66.7127 42.4307 66.9103 43.4898 66.9413C44.5838 66.9921 45.6788 66.8597 46.7118 66.5517L47.0269 66.4521H47.0698L47.1056 66.4702L51.62 68.403L51.4876 68.4996C51.0043 67.2373 50.5389 66.0142 50.0878 64.8394V64.7941L50.1272 64.7609C51.2223 63.8304 52.0353 62.6909 52.4971 61.4389C52.9155 60.2943 53.0375 59.0873 52.8551 57.8994C52.6929 56.8438 52.2905 55.8245 51.6701 54.8976C51.1354 54.1013 50.4456 53.3866 49.6295 52.7836C48.9563 52.3062 48.2112 51.9061 47.4135 51.5937C46.81 51.3741 46.1814 51.2071 45.5376 51.0954L44.8216 50.9957L44.3025 50.9625L43.9875 50.9444H43.8801C43.9158 50.941 43.9518 50.941 43.9875 50.9444H44.3061L44.8252 50.9625L45.5412 51.0501C46.193 51.1536 46.8301 51.3146 47.4422 51.5303C48.2535 51.839 49.0121 52.2382 49.6976 52.7171C50.5286 53.3175 51.233 54.0323 51.7811 54.8311C52.4191 55.768 52.8338 56.8011 53.0019 57.8723C53.1995 59.0784 53.0859 60.3064 52.669 61.4721C52.2041 62.7501 51.3785 63.9139 50.2632 64.8636L50.2847 64.785C50.7358 65.9598 51.2047 67.1829 51.6916 68.4423L51.7596 68.6265L51.5556 68.5389L47.0412 66.6091H47.12L46.7978 66.7088C45.7449 67.0213 44.6296 67.1568 43.5149 67.1074C42.4329 67.0727 41.3681 66.8678 40.3752 66.5034C38.4813 65.8192 36.9056 64.63 35.8895 63.118C35.4219 62.4197 35.0805 61.6665 34.8764 60.8832C34.8205 60.6953 34.7786 60.5047 34.7511 60.3124C34.7224 60.1222 34.6759 59.9349 34.6651 59.7477C34.5683 58.6731 34.7029 57.5926 35.0625 56.5586C35.2886 55.9372 35.6023 55.3411 35.9969 54.7828C36.665 53.8151 37.5692 52.9782 38.6497 52.3275C39.4658 51.8407 40.3719 51.4713 41.3311 51.2343L41.8932 51.1135C42.0586 51.0811 42.2259 51.0559 42.3944 51.038C42.6556 50.9972 42.92 50.973 43.1855 50.9655L43.676 50.9504C43.7318 50.9441 43.788 50.9411 43.8443 50.9414Z" fill="#FF7F48"/>
<path d="M45.8849 57.984H45.2226L43.7906 56.2868V55.1724C43.7906 55.1724 42.7667 55.118 42.8884 56.5767C43.0101 58.0353 42.8884 57.6639 42.8884 57.6639C42.8884 57.6639 40.7153 57.6639 40.5363 57.83C40.3573 57.9961 40.3466 59.7658 40.3215 60.7533C40.3078 60.9914 40.3888 61.2265 40.5516 61.4213C40.7144 61.6161 40.9497 61.7594 41.2201 61.8285C41.2959 61.8462 41.3742 61.8553 41.4528 61.8556C41.997 61.8556 44.7643 61.4842 44.7643 61.4842H45.9063L45.8849 57.984Z" fill="#FF7F48"/>
<path d="M47.7787 57.685L47.3706 61.5023H46.2393V57.7636L47.7787 57.685Z" fill="#FF7F48"/>
<path d="M61.2717 135.399V132.817L55.7836 132.783L55.737 136.688L56.0771 136.709C57.5915 136.791 63.7813 136.912 64.798 136.646C65.9293 136.35 61.2717 135.399 61.2717 135.399Z" fill="#FF7F48"/>
<path d="M64.9269 136.404C64.9269 136.447 62.872 136.483 60.3409 136.483C57.8099 136.483 55.7549 136.447 55.7549 136.404C55.7549 136.362 57.8099 136.326 60.3409 136.326C62.872 136.326 64.9269 136.362 64.9269 136.404Z" fill="#263238"/>
<path d="M61.3684 135.927C61.3218 135.906 61.3684 135.77 61.4793 135.625C61.5903 135.48 61.7407 135.42 61.7765 135.45C61.8123 135.48 61.7371 135.595 61.6297 135.719C61.5223 135.843 61.4149 135.948 61.3684 135.927Z" fill="#263238"/>
<path d="M61.7192 136.096C61.6691 136.096 61.6941 135.927 61.8015 135.767C61.9089 135.607 62.0521 135.51 62.0915 135.535C62.1309 135.559 62.0665 135.695 61.9662 135.837C61.866 135.979 61.7657 136.111 61.7192 136.096Z" fill="#263238"/>
<path d="M57.4089 136.392C57.3874 136.392 57.3051 136.338 57.1869 136.223C57.0427 136.076 56.8821 135.94 56.7072 135.818C56.5353 135.703 56.3304 135.627 56.1129 135.598C55.9447 135.58 55.8373 135.598 55.8265 135.58C55.8158 135.562 55.9196 135.498 56.1165 135.486C56.3764 135.482 56.6299 135.554 56.8325 135.692C57.0224 135.822 57.1825 135.981 57.3051 136.16C57.3874 136.293 57.4304 136.38 57.4089 136.392Z" fill="#263238"/>
<path d="M61.3863 135.441C61.4113 135.477 61.3183 135.568 61.1607 135.616C61.0032 135.664 60.8636 135.646 60.8564 135.616C60.8493 135.586 60.9603 135.523 61.0963 135.48C61.2323 135.438 61.3576 135.405 61.3863 135.441Z" fill="#263238"/>
<path d="M61.3004 135.19C61.3004 135.236 61.1572 135.272 60.971 135.275C60.7848 135.278 60.6381 135.242 60.6416 135.199C60.6452 135.157 60.792 135.118 60.971 135.115C61.15 135.112 61.2932 135.148 61.3004 135.19Z" fill="#263238"/>
<path d="M74.7862 135.399V132.817L69.2981 132.783L69.2515 136.649L69.5916 136.67C71.106 136.752 77.2994 136.912 78.3125 136.646C79.4438 136.35 74.7862 135.399 74.7862 135.399Z" fill="#FF7F48"/>
<path d="M78.4414 136.41C78.4414 136.453 76.3901 136.489 73.8554 136.489C71.3208 136.489 69.273 136.453 69.273 136.41C69.273 136.368 71.3244 136.332 73.8554 136.332C76.3865 136.332 78.4414 136.368 78.4414 136.41Z" fill="#263238"/>
<path d="M74.8829 135.927C74.8399 135.906 74.8829 135.77 74.9939 135.625C75.1048 135.48 75.2552 135.42 75.291 135.45C75.3268 135.48 75.2516 135.595 75.1442 135.719C75.0368 135.843 74.9294 135.948 74.8829 135.927Z" fill="#263238"/>
<path d="M75.2337 136.096C75.1872 136.096 75.2087 135.927 75.3196 135.767C75.4306 135.607 75.5702 135.51 75.6096 135.535C75.649 135.559 75.581 135.695 75.4807 135.837C75.3805 135.979 75.2838 136.111 75.2337 136.096Z" fill="#263238"/>
<path d="M70.9234 136.392C70.9019 136.392 70.8231 136.338 70.7014 136.223C70.5572 136.076 70.3966 135.94 70.2217 135.818C70.0497 135.703 69.8449 135.627 69.6274 135.598C69.4627 135.58 69.3518 135.598 69.341 135.58C69.3303 135.562 69.4341 135.498 69.631 135.486C69.8909 135.482 70.1444 135.554 70.347 135.692C70.5379 135.821 70.6982 135.98 70.8196 136.16C70.9019 136.293 70.9449 136.38 70.9234 136.392Z" fill="#263238"/>
<path d="M74.9008 135.441C74.9258 135.477 74.8328 135.568 74.6752 135.616C74.5177 135.664 74.3781 135.646 74.3709 135.616C74.3638 135.586 74.4748 135.523 74.6108 135.48C74.7468 135.438 74.8721 135.405 74.9008 135.441Z" fill="#263238"/>
<path d="M74.822 135.19C74.822 135.236 74.6788 135.272 74.4927 135.275C74.3065 135.278 74.1633 135.242 74.1669 135.199C74.1705 135.157 74.3137 135.118 74.4927 135.115C74.6717 135.112 74.822 135.148 74.822 135.19Z" fill="#263238"/>
<path d="M95.0061 58.7209C94.8629 58.5971 94.5084 58.6575 94.5084 58.6575C94.544 58.4836 94.544 58.3059 94.5084 58.132C94.444 57.9629 93.9929 57.9961 93.9929 57.9961C93.9721 57.8537 93.9721 57.7097 93.9929 57.5672C93.9965 57.5357 93.9885 57.504 93.9699 57.4764C93.9513 57.4488 93.9231 57.4268 93.8891 57.4132C93.6757 57.3398 93.4464 57.3048 93.2161 57.3106C92.9404 57.1445 94.0574 55.8247 94.4726 55.4019C94.8879 54.9791 94.8127 54.6499 94.444 54.6499C94.1898 54.6499 92.8867 55.9183 92.4857 56.3442C92.0848 56.77 91.0215 57.9538 90.9857 57.0086C90.9499 56.0633 90.4988 55.3506 90.216 55.2298C89.9332 55.109 89.6325 55.3928 89.7864 55.6556C89.9217 55.9541 90.006 56.2673 90.037 56.5857C90.0759 56.8395 90.0626 57.0969 89.9976 57.3468C89.8789 57.8117 89.7173 58.2681 89.5143 58.7118H89.4857C89.4857 58.7118 81.6741 65.0327 81.1085 65.4827C80.6037 65.8874 70.4508 65.0025 68.4138 64.8213C67.7216 64.7358 67.0226 64.6955 66.3231 64.7005C65.4388 64.7337 65.2813 64.8394 64.4006 64.8485C62.1765 64.8693 59.9576 65.0339 57.7633 65.3407C56.7697 65.4832 55.8416 65.8532 55.0803 66.4102C54.3189 66.9673 53.7535 67.6901 53.4458 68.4997C51.3945 73.9055 46.7477 86.7012 45.9278 93.8888C45.3083 94.8365 44.7491 95.8113 44.2524 96.8091C43.676 98.1319 43.8156 98.1772 44.009 98.2074C44.5316 98.2889 45.1259 95.9152 45.3479 96.489C45.5698 97.0628 44.2202 99.3188 44.7679 99.3852C45.4839 99.4698 46.0531 96.9692 46.1212 96.7699C46.1892 96.5706 46.5436 96.634 46.4792 96.8212C46.3753 97.087 45.3694 99.9046 46.071 99.9952C46.4577 100.044 46.5006 99.4486 46.5006 99.4486C46.5006 99.4486 47.2166 96.7517 47.5424 96.8061C47.8682 96.8605 47.5209 98.452 47.3563 98.9835C47.1916 99.5151 47.4207 99.7838 47.7572 99.654C47.9863 99.5634 48.5341 97.9477 48.6844 97.4222C48.8348 96.8967 49.2107 95.4411 49.7155 96.2837C50.2203 97.1262 50.9864 97.6155 51.3014 97.6275C51.3724 97.6206 51.4393 97.596 51.4935 97.5567C51.5478 97.5175 51.5868 97.4654 51.6057 97.4073C51.6246 97.3491 51.6224 97.2876 51.5994 97.2305C51.5765 97.1734 51.5338 97.1234 51.4768 97.087C51.2059 96.8638 50.9733 96.6096 50.7859 96.332C50.6189 96.1157 50.4978 95.8766 50.4279 95.6253C50.2836 95.1243 50.1997 94.6124 50.1773 94.0972L50.12 93.7952C50.9219 90.446 53.231 80.6159 56.564 74.3373L57.9316 76.711L58.5259 78.4687L54.8814 86.0579L70.4258 85.8858L68.1059 78.3539L70.9234 70.5019C73.97 70.5593 81.7923 70.6559 83.0954 70.1576C84.735 69.5536 93.2161 60.5178 93.2161 60.5178C93.7689 60.1554 94.2983 59.7683 94.802 59.3581C94.802 59.3581 95.3175 58.9927 95.0061 58.7209Z" fill="#FFBE9D"/>
<path d="M54.1976 80.4498C54.6487 79.1512 56.965 72.7307 56.965 72.7307C56.965 72.7307 58.1034 77.9643 57.8027 78.5955C57.5261 79.1359 57.1993 79.6569 56.8254 80.1538C54.1976 83.5272 54.5413 85.2154 54.5413 85.2154L70.4186 84.8077C70.4544 82.9353 69.1406 78.5804 68.8685 77.8858C68.5964 77.1912 69.5021 74.9172 69.5021 74.9172C69.5021 74.9172 71.2921 73.38 71.2277 72.5887C71.1937 71.878 71.0895 71.1709 70.9162 70.4747L80.5822 70.7767L80.2779 65.2501L66.3947 64.0784C65.9114 65.229 61.5402 64.6642 61.5402 64.6642C56.8218 64.7971 56.5282 65.528 54.5664 66.8145C52.6045 68.101 49.3575 79.1421 49.3575 79.1421L54.1976 80.4498Z" fill="#FF7F48"/>
<path d="M63.5844 79.1421C63.3092 79.1836 63.029 79.1958 62.7502 79.1784C62.2311 79.1784 61.5187 79.1482 60.7347 79.0817C59.9507 79.0153 59.2418 78.9217 58.7371 78.8371C58.4587 78.8069 58.1858 78.748 57.9244 78.6619C58.2043 78.662 58.4836 78.6843 58.7585 78.7284C59.2669 78.7827 59.9722 78.8582 60.7526 78.9247C61.533 78.9911 62.2419 79.0364 62.7538 79.0666C63.0329 79.0696 63.311 79.0949 63.5844 79.1421V79.1421Z" fill="#263238"/>
<path d="M64.6727 78.0036C64.3975 78.1173 64.1064 78.2015 63.8064 78.2542C62.3781 78.5708 60.9045 78.7182 59.428 78.6921C59.1225 78.7005 58.817 78.6762 58.5187 78.6197C58.8202 78.5875 59.1242 78.5744 59.428 78.5804C59.9901 78.5653 60.7634 78.5321 61.6154 78.4475C62.4674 78.363 63.2264 78.2422 63.7634 78.1455C64.0617 78.0783 64.3657 78.0309 64.6727 78.0036V78.0036Z" fill="#263238"/>
<path d="M70.0141 72.924C70.0068 73.1542 69.9696 73.3831 69.9031 73.6065C69.81 74.0262 69.6668 74.6001 69.4842 75.2282C69.3017 75.8564 69.1262 76.4362 68.9687 76.8288C68.9054 77.0535 68.8117 77.2714 68.6895 77.4781C68.7094 77.2486 68.7599 77.0217 68.8398 76.8016C68.9759 76.3305 69.1298 75.7869 69.3017 75.192C69.4735 74.597 69.6382 74.0534 69.7742 73.5823C69.8227 73.3556 69.9032 73.1345 70.0141 72.924V72.924Z" fill="#263238"/>
<path d="M54.3659 79.6797C53.5377 79.5718 52.7203 79.4113 51.9208 79.1995C51.1038 79.0384 50.302 78.8264 49.5222 78.5653C50.35 78.675 51.1672 78.8354 51.9673 79.0455C52.7845 79.2061 53.5863 79.4181 54.3659 79.6797V79.6797Z" fill="#263238"/>
<path d="M71.0881 70.4083C70.953 70.4279 70.815 70.4279 70.6799 70.4083C70.306 70.3759 69.9388 70.3018 69.588 70.1878C69.0024 70.0022 68.4693 69.7152 68.0229 69.3455C67.5765 68.9757 67.2268 68.5312 66.9961 68.0406C66.7412 67.5009 66.6323 66.92 66.6775 66.3403C66.6935 65.8622 66.863 65.3967 67.168 64.9934C67.3825 64.7218 67.7029 64.522 68.0737 64.4287C68.1728 64.4056 68.2752 64.3944 68.378 64.3955C68.4496 64.3955 68.4854 64.3955 68.4854 64.3955C68.4854 64.3955 68.335 64.3955 68.0952 64.477C67.755 64.583 67.4665 64.7818 67.2754 65.0417C66.7885 65.688 66.6524 66.8688 67.1715 67.9711C67.4131 68.4909 67.7914 68.9576 68.2778 69.3362C68.6763 69.646 69.1353 69.8953 69.6346 70.0731C70.1031 70.2293 70.5905 70.3417 71.0881 70.4083V70.4083Z" fill="#263238"/>
<path d="M79.4331 70.668C79.3435 69.7419 79.3148 68.8123 79.3471 67.8836C79.3191 66.9556 79.3526 66.027 79.4474 65.1021C79.537 66.0272 79.5657 66.9558 79.5333 67.8836C79.5634 68.8126 79.5299 69.7423 79.4331 70.668V70.668Z" fill="#263238"/>
<path d="M66.3016 64.4166C66.341 63.7431 66.4233 62.9821 66.4233 62.9821C66.4233 62.9821 68.3995 62.7979 68.5176 61.0765C68.6358 59.3551 68.5176 55.3838 68.5176 55.3838L64.9376 53.8375L60.9638 56.474L61.576 65.081L65.2205 65.2773C65.499 65.2838 65.7693 65.1968 65.972 65.0355C66.1746 64.8741 66.2932 64.6516 66.3016 64.4166V64.4166Z" fill="#FFBE9D"/>
<path d="M66.656 59.7145C66.656 59.7145 66.656 59.7477 66.6238 59.7869C66.5972 59.8154 66.5627 59.838 66.5234 59.8527C66.4841 59.8675 66.4412 59.8739 66.3983 59.8715C66.1692 59.8715 65.9472 59.648 65.8684 59.3883C65.831 59.2624 65.831 59.1307 65.8684 59.0048C65.8758 58.9498 65.8993 58.8973 65.9368 58.8519C65.9743 58.8066 66.0246 58.7698 66.0832 58.745C66.1314 58.7283 66.1854 58.7283 66.2336 58.745C66.2693 58.76 66.2982 58.7844 66.3159 58.8145C66.341 58.8658 66.3159 58.8991 66.3159 58.896C66.3159 58.893 66.3159 58.8658 66.2801 58.8356C66.2614 58.814 66.2339 58.799 66.2029 58.7934C66.1718 58.7878 66.1394 58.7921 66.1119 58.8054C66.068 58.8278 66.0315 58.8592 66.0058 58.8967C65.9802 58.9342 65.9661 58.9766 65.9651 59.0199C65.935 59.1322 65.935 59.2488 65.9651 59.3611C66.0367 59.5967 66.23 59.7869 66.4019 59.8051C66.4355 59.8089 66.4697 59.8069 66.5023 59.7991C66.535 59.7913 66.5654 59.7779 66.5916 59.7598C66.6346 59.7356 66.6489 59.7114 66.656 59.7145Z" fill="#EB996E"/>
<path d="M69.7456 54.4536C69.4699 53.6624 68.4711 53.2698 67.5618 53.0523C66.1763 52.7201 64.6799 52.5752 63.3266 52.995C61.9734 53.4147 60.3481 54.1516 60.3481 55.411C59.5497 55.3566 59.0915 55.9455 58.7765 56.6763C58.575 57.1216 58.4544 57.5899 58.4185 58.0655V58.0655C58.3182 59.7145 57.7705 61.9915 56.5032 63.1995C55.7872 63.873 54.7955 64.3381 54.3874 65.1776C54.0294 65.9055 54.2155 66.7692 53.8826 67.5061C53.5855 68.1554 52.9303 68.6174 52.4506 69.1822C51.9619 69.8228 51.6742 70.5578 51.6148 71.318C51.5553 72.0782 51.7259 72.8386 52.1105 73.5279C52.4979 74.1996 53.0434 74.7976 53.7136 75.2857C54.3839 75.7737 55.1649 76.1415 56.0091 76.3667C57.6814 76.7959 59.4646 76.8106 61.1464 76.409C62.4086 76.1544 63.5861 75.6619 64.5904 74.9685C65.618 74.2606 66.3237 73.2747 66.588 72.178C66.8422 70.9458 66.4341 69.6925 66.1298 68.4664C65.1775 64.5918 65.4496 64.3894 66.6525 60.7926C66.6811 60.7292 66.6954 60.6627 66.7169 60.5993C66.7384 60.5359 66.7491 60.5057 66.7634 60.4574C66.7976 60.3152 66.8156 60.1706 66.8171 60.0255C66.6415 60.0806 66.4508 60.0923 66.2675 60.0591C66.0842 60.026 65.916 59.9493 65.7825 59.8383C65.6488 59.7199 65.5555 59.5731 65.5127 59.4136C65.4698 59.2541 65.4789 59.0878 65.5391 58.9323C65.6236 58.7622 65.7494 58.609 65.9085 58.4826C66.0676 58.3562 66.2564 58.2594 66.4627 58.1984C66.8601 58.0595 67.2861 57.987 67.6763 57.833C68.5033 57.5008 69.0761 56.8122 69.4663 56.0905C69.7872 55.5902 69.8862 55.0099 69.7456 54.4536V54.4536Z" fill="#263238"/>
<path d="M66.7992 59.796C66.8749 59.8903 66.9373 59.9916 66.9854 60.098C67.0928 60.2883 67.236 60.557 67.3935 60.8681L67.4221 60.9255H67.347L66.989 60.9527C66.7419 60.9527 66.5343 60.9919 66.2909 60.9889C66.2697 60.9849 66.25 60.9764 66.2337 60.9643C66.2175 60.9521 66.2051 60.9367 66.1978 60.9194C66.1871 60.892 66.1871 60.8624 66.1978 60.8349C66.2061 60.7942 66.2168 60.7539 66.23 60.7141L66.2944 60.4997C66.3268 60.3566 66.3772 60.2169 66.4448 60.0829C66.4381 60.2287 66.4129 60.3735 66.3696 60.5148L66.3195 60.7292C66.3016 60.8017 66.2694 60.9134 66.3195 60.9043C66.4985 60.9043 66.7527 60.8711 66.989 60.859L67.347 60.8319L67.3004 60.8983C67.1465 60.5963 67.0176 60.3124 66.9424 60.1161C66.8765 60.0159 66.8282 59.908 66.7992 59.796V59.796Z" fill="#FF7F48"/>
<path d="M54.5413 85.2153L70.4186 84.8076L77.328 107.56L76.0571 133.659H67.662L68.6895 108.116L62.5498 92.2761L63.4949 134.671L55.0103 134.777L54.1189 94.9277C54.0795 93.8193 53.6499 91.3218 53.811 90.2225L54.5413 85.2153Z" fill="#263238"/>
<path d="M64.662 92.5992C64.4021 92.613 64.1412 92.5999 63.8851 92.56C63.4054 92.5117 62.7503 92.4271 62.0307 92.3063C61.3111 92.1855 60.6667 92.0466 60.2013 91.9348C59.9525 91.8887 59.7118 91.8156 59.4853 91.7174C59.4853 91.6721 60.6524 91.9077 62.0844 92.1523C63.5164 92.3969 64.6691 92.5539 64.662 92.5992Z" fill="#455A64"/>
<path d="M75.9712 132.228C75.9712 132.27 74.0702 132.306 71.7253 132.306C69.3804 132.306 67.4759 132.27 67.4759 132.228C67.4759 132.185 69.3768 132.149 71.7253 132.149C74.0738 132.149 75.9712 132.182 75.9712 132.228Z" fill="#455A64"/>
<path d="M63.4197 133.569C63.4197 133.614 61.5725 133.647 59.2956 133.647C57.0187 133.647 55.175 133.614 55.175 133.569C55.175 133.523 57.0223 133.49 59.2956 133.49C61.5689 133.49 63.4197 133.526 63.4197 133.569Z" fill="#455A64"/>
<path d="M62.3242 133.46C62.2741 133.46 62.0522 124.198 61.8266 112.773C61.6011 101.348 61.4686 92.0798 61.5152 92.0798C61.5617 92.0798 61.7908 101.339 62.0128 112.77C62.2347 124.201 62.3779 133.46 62.3242 133.46Z" fill="#455A64"/>
<path d="M74.8435 132.228C74.8396 132.186 74.8396 132.145 74.8435 132.104V131.741C74.8435 131.415 74.8721 130.947 74.8936 130.352C74.9437 129.144 75.0153 127.39 75.1048 125.239C75.2982 120.915 75.5702 114.953 75.8674 108.373C75.8674 108.309 75.8674 108.249 75.8674 108.195V108.216C73.9879 101.874 72.2874 96.1175 71.0523 91.953L69.6203 87.0273C69.4556 86.4505 69.3303 86.0005 69.2408 85.6865C69.1978 85.5385 69.1692 85.4237 69.1441 85.3361C69.1302 85.2968 69.1218 85.2563 69.1191 85.2153C69.1377 85.2534 69.1521 85.2928 69.162 85.3331C69.1907 85.4177 69.2265 85.5324 69.2766 85.6774C69.3733 85.9794 69.5129 86.4384 69.6919 87.0122C70.0499 88.178 70.5547 89.8571 71.1847 91.9258C72.4306 96.0873 74.149 101.828 76.0535 108.179V108.201C76.0535 108.255 76.0535 108.318 76.0535 108.379C75.7349 114.959 75.4449 120.918 75.2337 125.242C75.1227 127.396 75.0297 129.138 74.9652 130.352C74.9294 130.956 74.9008 131.415 74.8829 131.741C74.8829 131.895 74.8614 132.016 74.8578 132.104C74.8584 132.145 74.8535 132.187 74.8435 132.228V132.228Z" fill="#455A64"/>
<path d="M72.1048 107.663C71.5018 107.83 70.8806 107.947 70.2503 108.01C69.4771 108.122 68.8183 108.201 68.5212 108.213V108.152C68.6179 108.176 68.668 108.191 68.668 108.204C68.668 108.216 68.6071 108.204 68.5069 108.204H68.2921L68.5069 108.149C68.7861 108.08 69.4448 107.965 70.2181 107.847C70.8383 107.734 71.4703 107.672 72.1048 107.663Z" fill="#455A64"/>
<path d="M71.958 108.53C71.3996 108.551 70.84 108.53 70.2862 108.466C69.727 108.457 69.1699 108.405 68.6215 108.312C69.7403 108.235 70.8665 108.309 71.958 108.53V108.53Z" fill="#455A64"/>
<path opacity="0.2" d="M54.4733 85.6955C54.6613 85.8992 54.8982 86.0672 55.1684 86.1884C55.4386 86.3097 55.736 86.3815 56.0413 86.3992C56.6808 86.4631 57.3276 86.4529 57.9638 86.369C62.0629 85.9854 66.4054 85.6321 70.4186 84.8076C65.224 85.0523 59.7359 84.9707 54.5413 85.2153L54.4876 85.5898" fill="black"/>
<g opacity="0.2">
<path d="M59.8254 91.8714L62.7538 101.457L62.5498 92.2761L59.8254 91.8714Z" fill="black"/>
</g>
</svg>
